%
M48
M72
T01C0.02362
T02C0.03937
T03C0.04000
T04C0.04724
T05C0.10827
%
T01
X43900Y73400
X43900Y105900
X66400Y125900
X64900Y137600
X43900Y175900
X193900Y180900
X193900Y195900
X193900Y160900
X193900Y140900
T02
X191853Y215093
X181853Y215093
X181853Y225093
X191853Y225093
X201853Y225093
X211853Y225093
X221853Y225093
X231853Y225093
X231853Y215093
X221853Y215093
X211853Y215093
X201853Y215093
X171853Y215093
X171853Y225093
X161853Y225093
X151853Y225093
X151853Y215093
X161853Y215093
X141853Y215093
X131853Y215093
X131853Y225093
X141853Y225093
X121853Y225093
X121853Y215093
X111853Y215093
X101853Y215093
X101853Y225093
X111853Y225093
X91853Y225093
X91853Y215093
X81853Y215093
X71853Y215093
X71853Y225093
X81853Y225093
X61853Y225093
X61853Y215093
X51853Y215093
X41853Y215093
X41853Y225093
X51853Y225093
T03
X93900Y183400
X93900Y173400
X93900Y163400
X123900Y163400
X123900Y173400
X123900Y183400
X153900Y183400
X153900Y173400
X153900Y163400
X218900Y153400
X228900Y153400
X238900Y153400
X248900Y153400
X248900Y173400
X238900Y173400
X228900Y173400
X218900Y173400
X218900Y193400
X228900Y193400
X238900Y193400
X248900Y193400
X248900Y133400
X238900Y133400
X228900Y133400
X218900Y133400
X216400Y98400
X206400Y98400
X226400Y98400
X226400Y68400
X216400Y68400
X206400Y68400
X206400Y38400
X216400Y38400
X226400Y38400
X76400Y23400
X66400Y23400
X56400Y23400
X46400Y23400
X28900Y48400
X18900Y48400
X18900Y58400
X28900Y58400
X28900Y83400
X28900Y93400
X18900Y93400
X18900Y83400
X18900Y118400
X18900Y128400
X28900Y128400
X28900Y118400
X28900Y153400
X28900Y163400
X18900Y163400
X18900Y153400
T04
X21400Y184620
X21400Y198400
T05
X22680Y27180
X22680Y220093
X251026Y220093
X251026Y27180
M30
