G75*
%MOIN*%
%OFA0B0*%
%FSLAX25Y25*%
%IPPOS*%
%LPD*%
%AMOC8*
5,1,8,0,0,1.08239X$1,22.5*
%
%ADD10R,0.07400X0.07400*%
%ADD11C,0.07400*%
%ADD12C,0.00000*%
%ADD13R,0.07000X0.07000*%
%ADD14C,0.07000*%
%ADD15R,0.08000X0.08000*%
%ADD16C,0.08000*%
%ADD17C,0.01000*%
%ADD18C,0.05000*%
%ADD19R,0.03562X0.03562*%
%ADD20C,0.03200*%
%ADD21C,0.02400*%
%ADD22C,0.03562*%
%ADD23C,0.01600*%
D10*
X0046400Y0023400D03*
X0218900Y0133400D03*
X0218900Y0153400D03*
X0218900Y0173400D03*
X0218900Y0193400D03*
X0153900Y0183400D03*
X0123900Y0183400D03*
X0093900Y0183400D03*
X0226400Y0098400D03*
X0226400Y0068400D03*
X0226400Y0038400D03*
D11*
X0216400Y0038400D03*
X0206400Y0038400D03*
X0206400Y0068400D03*
X0216400Y0068400D03*
X0216400Y0098400D03*
X0206400Y0098400D03*
X0228900Y0133400D03*
X0238900Y0133400D03*
X0248900Y0133400D03*
X0248900Y0153400D03*
X0238900Y0153400D03*
X0228900Y0153400D03*
X0228900Y0173400D03*
X0238900Y0173400D03*
X0248900Y0173400D03*
X0248900Y0193400D03*
X0238900Y0193400D03*
X0228900Y0193400D03*
X0153900Y0173400D03*
X0153900Y0163400D03*
X0123900Y0163400D03*
X0123900Y0173400D03*
X0093900Y0173400D03*
X0093900Y0163400D03*
X0028900Y0163400D03*
X0028900Y0153400D03*
X0018900Y0153400D03*
X0018900Y0163400D03*
X0018900Y0128400D03*
X0018900Y0118400D03*
X0028900Y0118400D03*
X0028900Y0128400D03*
X0028900Y0093400D03*
X0028900Y0083400D03*
X0018900Y0083400D03*
X0018900Y0093400D03*
X0018900Y0058400D03*
X0028900Y0058400D03*
X0028900Y0048400D03*
X0018900Y0048400D03*
X0056400Y0023400D03*
X0066400Y0023400D03*
X0076400Y0023400D03*
D12*
X0017267Y0027180D02*
X0017269Y0027327D01*
X0017275Y0027473D01*
X0017285Y0027619D01*
X0017299Y0027765D01*
X0017317Y0027911D01*
X0017338Y0028056D01*
X0017364Y0028200D01*
X0017394Y0028344D01*
X0017427Y0028486D01*
X0017464Y0028628D01*
X0017505Y0028769D01*
X0017550Y0028908D01*
X0017599Y0029047D01*
X0017651Y0029184D01*
X0017708Y0029319D01*
X0017767Y0029453D01*
X0017831Y0029585D01*
X0017898Y0029715D01*
X0017968Y0029844D01*
X0018042Y0029971D01*
X0018119Y0030095D01*
X0018200Y0030218D01*
X0018284Y0030338D01*
X0018371Y0030456D01*
X0018461Y0030571D01*
X0018554Y0030684D01*
X0018651Y0030795D01*
X0018750Y0030903D01*
X0018852Y0031008D01*
X0018957Y0031110D01*
X0019065Y0031209D01*
X0019176Y0031306D01*
X0019289Y0031399D01*
X0019404Y0031489D01*
X0019522Y0031576D01*
X0019642Y0031660D01*
X0019765Y0031741D01*
X0019889Y0031818D01*
X0020016Y0031892D01*
X0020145Y0031962D01*
X0020275Y0032029D01*
X0020407Y0032093D01*
X0020541Y0032152D01*
X0020676Y0032209D01*
X0020813Y0032261D01*
X0020952Y0032310D01*
X0021091Y0032355D01*
X0021232Y0032396D01*
X0021374Y0032433D01*
X0021516Y0032466D01*
X0021660Y0032496D01*
X0021804Y0032522D01*
X0021949Y0032543D01*
X0022095Y0032561D01*
X0022241Y0032575D01*
X0022387Y0032585D01*
X0022533Y0032591D01*
X0022680Y0032593D01*
X0022827Y0032591D01*
X0022973Y0032585D01*
X0023119Y0032575D01*
X0023265Y0032561D01*
X0023411Y0032543D01*
X0023556Y0032522D01*
X0023700Y0032496D01*
X0023844Y0032466D01*
X0023986Y0032433D01*
X0024128Y0032396D01*
X0024269Y0032355D01*
X0024408Y0032310D01*
X0024547Y0032261D01*
X0024684Y0032209D01*
X0024819Y0032152D01*
X0024953Y0032093D01*
X0025085Y0032029D01*
X0025215Y0031962D01*
X0025344Y0031892D01*
X0025471Y0031818D01*
X0025595Y0031741D01*
X0025718Y0031660D01*
X0025838Y0031576D01*
X0025956Y0031489D01*
X0026071Y0031399D01*
X0026184Y0031306D01*
X0026295Y0031209D01*
X0026403Y0031110D01*
X0026508Y0031008D01*
X0026610Y0030903D01*
X0026709Y0030795D01*
X0026806Y0030684D01*
X0026899Y0030571D01*
X0026989Y0030456D01*
X0027076Y0030338D01*
X0027160Y0030218D01*
X0027241Y0030095D01*
X0027318Y0029971D01*
X0027392Y0029844D01*
X0027462Y0029715D01*
X0027529Y0029585D01*
X0027593Y0029453D01*
X0027652Y0029319D01*
X0027709Y0029184D01*
X0027761Y0029047D01*
X0027810Y0028908D01*
X0027855Y0028769D01*
X0027896Y0028628D01*
X0027933Y0028486D01*
X0027966Y0028344D01*
X0027996Y0028200D01*
X0028022Y0028056D01*
X0028043Y0027911D01*
X0028061Y0027765D01*
X0028075Y0027619D01*
X0028085Y0027473D01*
X0028091Y0027327D01*
X0028093Y0027180D01*
X0028091Y0027033D01*
X0028085Y0026887D01*
X0028075Y0026741D01*
X0028061Y0026595D01*
X0028043Y0026449D01*
X0028022Y0026304D01*
X0027996Y0026160D01*
X0027966Y0026016D01*
X0027933Y0025874D01*
X0027896Y0025732D01*
X0027855Y0025591D01*
X0027810Y0025452D01*
X0027761Y0025313D01*
X0027709Y0025176D01*
X0027652Y0025041D01*
X0027593Y0024907D01*
X0027529Y0024775D01*
X0027462Y0024645D01*
X0027392Y0024516D01*
X0027318Y0024389D01*
X0027241Y0024265D01*
X0027160Y0024142D01*
X0027076Y0024022D01*
X0026989Y0023904D01*
X0026899Y0023789D01*
X0026806Y0023676D01*
X0026709Y0023565D01*
X0026610Y0023457D01*
X0026508Y0023352D01*
X0026403Y0023250D01*
X0026295Y0023151D01*
X0026184Y0023054D01*
X0026071Y0022961D01*
X0025956Y0022871D01*
X0025838Y0022784D01*
X0025718Y0022700D01*
X0025595Y0022619D01*
X0025471Y0022542D01*
X0025344Y0022468D01*
X0025215Y0022398D01*
X0025085Y0022331D01*
X0024953Y0022267D01*
X0024819Y0022208D01*
X0024684Y0022151D01*
X0024547Y0022099D01*
X0024408Y0022050D01*
X0024269Y0022005D01*
X0024128Y0021964D01*
X0023986Y0021927D01*
X0023844Y0021894D01*
X0023700Y0021864D01*
X0023556Y0021838D01*
X0023411Y0021817D01*
X0023265Y0021799D01*
X0023119Y0021785D01*
X0022973Y0021775D01*
X0022827Y0021769D01*
X0022680Y0021767D01*
X0022533Y0021769D01*
X0022387Y0021775D01*
X0022241Y0021785D01*
X0022095Y0021799D01*
X0021949Y0021817D01*
X0021804Y0021838D01*
X0021660Y0021864D01*
X0021516Y0021894D01*
X0021374Y0021927D01*
X0021232Y0021964D01*
X0021091Y0022005D01*
X0020952Y0022050D01*
X0020813Y0022099D01*
X0020676Y0022151D01*
X0020541Y0022208D01*
X0020407Y0022267D01*
X0020275Y0022331D01*
X0020145Y0022398D01*
X0020016Y0022468D01*
X0019889Y0022542D01*
X0019765Y0022619D01*
X0019642Y0022700D01*
X0019522Y0022784D01*
X0019404Y0022871D01*
X0019289Y0022961D01*
X0019176Y0023054D01*
X0019065Y0023151D01*
X0018957Y0023250D01*
X0018852Y0023352D01*
X0018750Y0023457D01*
X0018651Y0023565D01*
X0018554Y0023676D01*
X0018461Y0023789D01*
X0018371Y0023904D01*
X0018284Y0024022D01*
X0018200Y0024142D01*
X0018119Y0024265D01*
X0018042Y0024389D01*
X0017968Y0024516D01*
X0017898Y0024645D01*
X0017831Y0024775D01*
X0017767Y0024907D01*
X0017708Y0025041D01*
X0017651Y0025176D01*
X0017599Y0025313D01*
X0017550Y0025452D01*
X0017505Y0025591D01*
X0017464Y0025732D01*
X0017427Y0025874D01*
X0017394Y0026016D01*
X0017364Y0026160D01*
X0017338Y0026304D01*
X0017317Y0026449D01*
X0017299Y0026595D01*
X0017285Y0026741D01*
X0017275Y0026887D01*
X0017269Y0027033D01*
X0017267Y0027180D01*
X0008900Y0025211D02*
X0008903Y0024926D01*
X0008914Y0024640D01*
X0008931Y0024355D01*
X0008955Y0024071D01*
X0008986Y0023787D01*
X0009024Y0023504D01*
X0009069Y0023223D01*
X0009120Y0022942D01*
X0009178Y0022662D01*
X0009243Y0022384D01*
X0009315Y0022108D01*
X0009393Y0021834D01*
X0009478Y0021561D01*
X0009570Y0021291D01*
X0009668Y0021023D01*
X0009772Y0020757D01*
X0009883Y0020494D01*
X0010000Y0020234D01*
X0010123Y0019976D01*
X0010253Y0019722D01*
X0010389Y0019471D01*
X0010530Y0019223D01*
X0010678Y0018979D01*
X0010831Y0018738D01*
X0010991Y0018502D01*
X0011156Y0018269D01*
X0011326Y0018040D01*
X0011502Y0017815D01*
X0011684Y0017595D01*
X0011870Y0017379D01*
X0012062Y0017168D01*
X0012259Y0016961D01*
X0012461Y0016759D01*
X0012668Y0016562D01*
X0012879Y0016370D01*
X0013095Y0016184D01*
X0013315Y0016002D01*
X0013540Y0015826D01*
X0013769Y0015656D01*
X0014002Y0015491D01*
X0014238Y0015331D01*
X0014479Y0015178D01*
X0014723Y0015030D01*
X0014971Y0014889D01*
X0015222Y0014753D01*
X0015476Y0014623D01*
X0015734Y0014500D01*
X0015994Y0014383D01*
X0016257Y0014272D01*
X0016523Y0014168D01*
X0016791Y0014070D01*
X0017061Y0013978D01*
X0017334Y0013893D01*
X0017608Y0013815D01*
X0017884Y0013743D01*
X0018162Y0013678D01*
X0018442Y0013620D01*
X0018723Y0013569D01*
X0019004Y0013524D01*
X0019287Y0013486D01*
X0019571Y0013455D01*
X0019855Y0013431D01*
X0020140Y0013414D01*
X0020426Y0013403D01*
X0020711Y0013400D01*
X0252994Y0013400D01*
X0253279Y0013403D01*
X0253565Y0013414D01*
X0253850Y0013431D01*
X0254134Y0013455D01*
X0254418Y0013486D01*
X0254701Y0013524D01*
X0254982Y0013569D01*
X0255263Y0013620D01*
X0255543Y0013678D01*
X0255821Y0013743D01*
X0256097Y0013815D01*
X0256371Y0013893D01*
X0256644Y0013978D01*
X0256914Y0014070D01*
X0257182Y0014168D01*
X0257448Y0014272D01*
X0257711Y0014383D01*
X0257971Y0014500D01*
X0258229Y0014623D01*
X0258483Y0014753D01*
X0258734Y0014889D01*
X0258982Y0015030D01*
X0259226Y0015178D01*
X0259467Y0015331D01*
X0259703Y0015491D01*
X0259936Y0015656D01*
X0260165Y0015826D01*
X0260390Y0016002D01*
X0260610Y0016184D01*
X0260826Y0016370D01*
X0261037Y0016562D01*
X0261244Y0016759D01*
X0261446Y0016961D01*
X0261643Y0017168D01*
X0261835Y0017379D01*
X0262021Y0017595D01*
X0262203Y0017815D01*
X0262379Y0018040D01*
X0262549Y0018269D01*
X0262714Y0018502D01*
X0262874Y0018738D01*
X0263027Y0018979D01*
X0263175Y0019223D01*
X0263316Y0019471D01*
X0263452Y0019722D01*
X0263582Y0019976D01*
X0263705Y0020234D01*
X0263822Y0020494D01*
X0263933Y0020757D01*
X0264037Y0021023D01*
X0264135Y0021291D01*
X0264227Y0021561D01*
X0264312Y0021834D01*
X0264390Y0022108D01*
X0264462Y0022384D01*
X0264527Y0022662D01*
X0264585Y0022942D01*
X0264636Y0023223D01*
X0264681Y0023504D01*
X0264719Y0023787D01*
X0264750Y0024071D01*
X0264774Y0024355D01*
X0264791Y0024640D01*
X0264802Y0024926D01*
X0264805Y0025211D01*
X0264806Y0025211D02*
X0264806Y0222061D01*
X0264805Y0222061D02*
X0264802Y0222346D01*
X0264791Y0222632D01*
X0264774Y0222917D01*
X0264750Y0223201D01*
X0264719Y0223485D01*
X0264681Y0223768D01*
X0264636Y0224049D01*
X0264585Y0224330D01*
X0264527Y0224610D01*
X0264462Y0224888D01*
X0264390Y0225164D01*
X0264312Y0225438D01*
X0264227Y0225711D01*
X0264135Y0225981D01*
X0264037Y0226249D01*
X0263933Y0226515D01*
X0263822Y0226778D01*
X0263705Y0227038D01*
X0263582Y0227296D01*
X0263452Y0227550D01*
X0263316Y0227801D01*
X0263175Y0228049D01*
X0263027Y0228293D01*
X0262874Y0228534D01*
X0262714Y0228770D01*
X0262549Y0229003D01*
X0262379Y0229232D01*
X0262203Y0229457D01*
X0262021Y0229677D01*
X0261835Y0229893D01*
X0261643Y0230104D01*
X0261446Y0230311D01*
X0261244Y0230513D01*
X0261037Y0230710D01*
X0260826Y0230902D01*
X0260610Y0231088D01*
X0260390Y0231270D01*
X0260165Y0231446D01*
X0259936Y0231616D01*
X0259703Y0231781D01*
X0259467Y0231941D01*
X0259226Y0232094D01*
X0258982Y0232242D01*
X0258734Y0232383D01*
X0258483Y0232519D01*
X0258229Y0232649D01*
X0257971Y0232772D01*
X0257711Y0232889D01*
X0257448Y0233000D01*
X0257182Y0233104D01*
X0256914Y0233202D01*
X0256644Y0233294D01*
X0256371Y0233379D01*
X0256097Y0233457D01*
X0255821Y0233529D01*
X0255543Y0233594D01*
X0255263Y0233652D01*
X0254982Y0233703D01*
X0254701Y0233748D01*
X0254418Y0233786D01*
X0254134Y0233817D01*
X0253850Y0233841D01*
X0253565Y0233858D01*
X0253279Y0233869D01*
X0252994Y0233872D01*
X0020711Y0233872D01*
X0020426Y0233869D01*
X0020140Y0233858D01*
X0019855Y0233841D01*
X0019571Y0233817D01*
X0019287Y0233786D01*
X0019004Y0233748D01*
X0018723Y0233703D01*
X0018442Y0233652D01*
X0018162Y0233594D01*
X0017884Y0233529D01*
X0017608Y0233457D01*
X0017334Y0233379D01*
X0017061Y0233294D01*
X0016791Y0233202D01*
X0016523Y0233104D01*
X0016257Y0233000D01*
X0015994Y0232889D01*
X0015734Y0232772D01*
X0015476Y0232649D01*
X0015222Y0232519D01*
X0014971Y0232383D01*
X0014723Y0232242D01*
X0014479Y0232094D01*
X0014238Y0231941D01*
X0014002Y0231781D01*
X0013769Y0231616D01*
X0013540Y0231446D01*
X0013315Y0231270D01*
X0013095Y0231088D01*
X0012879Y0230902D01*
X0012668Y0230710D01*
X0012461Y0230513D01*
X0012259Y0230311D01*
X0012062Y0230104D01*
X0011870Y0229893D01*
X0011684Y0229677D01*
X0011502Y0229457D01*
X0011326Y0229232D01*
X0011156Y0229003D01*
X0010991Y0228770D01*
X0010831Y0228534D01*
X0010678Y0228293D01*
X0010530Y0228049D01*
X0010389Y0227801D01*
X0010253Y0227550D01*
X0010123Y0227296D01*
X0010000Y0227038D01*
X0009883Y0226778D01*
X0009772Y0226515D01*
X0009668Y0226249D01*
X0009570Y0225981D01*
X0009478Y0225711D01*
X0009393Y0225438D01*
X0009315Y0225164D01*
X0009243Y0224888D01*
X0009178Y0224610D01*
X0009120Y0224330D01*
X0009069Y0224049D01*
X0009024Y0223768D01*
X0008986Y0223485D01*
X0008955Y0223201D01*
X0008931Y0222917D01*
X0008914Y0222632D01*
X0008903Y0222346D01*
X0008900Y0222061D01*
X0008900Y0167298D01*
X0008900Y0164975D01*
X0008900Y0025211D01*
X0182128Y0029148D02*
X0182128Y0088203D01*
X0182130Y0088327D01*
X0182136Y0088450D01*
X0182145Y0088574D01*
X0182159Y0088696D01*
X0182176Y0088819D01*
X0182198Y0088941D01*
X0182223Y0089062D01*
X0182252Y0089182D01*
X0182284Y0089301D01*
X0182321Y0089420D01*
X0182361Y0089537D01*
X0182404Y0089652D01*
X0182452Y0089767D01*
X0182503Y0089879D01*
X0182557Y0089990D01*
X0182615Y0090100D01*
X0182676Y0090207D01*
X0182741Y0090313D01*
X0182809Y0090416D01*
X0182880Y0090517D01*
X0182954Y0090616D01*
X0183031Y0090713D01*
X0183112Y0090807D01*
X0183195Y0090898D01*
X0183281Y0090987D01*
X0183370Y0091073D01*
X0183461Y0091156D01*
X0183555Y0091237D01*
X0183652Y0091314D01*
X0183751Y0091388D01*
X0183852Y0091459D01*
X0183955Y0091527D01*
X0184061Y0091592D01*
X0184168Y0091653D01*
X0184278Y0091711D01*
X0184389Y0091765D01*
X0184501Y0091816D01*
X0184616Y0091864D01*
X0184731Y0091907D01*
X0184848Y0091947D01*
X0184967Y0091984D01*
X0185086Y0092016D01*
X0185206Y0092045D01*
X0185327Y0092070D01*
X0185449Y0092092D01*
X0185572Y0092109D01*
X0185694Y0092123D01*
X0185818Y0092132D01*
X0185941Y0092138D01*
X0186065Y0092140D01*
X0186189Y0092138D01*
X0186312Y0092132D01*
X0186436Y0092123D01*
X0186558Y0092109D01*
X0186681Y0092092D01*
X0186803Y0092070D01*
X0186924Y0092045D01*
X0187044Y0092016D01*
X0187163Y0091984D01*
X0187282Y0091947D01*
X0187399Y0091907D01*
X0187514Y0091864D01*
X0187629Y0091816D01*
X0187741Y0091765D01*
X0187852Y0091711D01*
X0187962Y0091653D01*
X0188069Y0091592D01*
X0188175Y0091527D01*
X0188278Y0091459D01*
X0188379Y0091388D01*
X0188478Y0091314D01*
X0188575Y0091237D01*
X0188669Y0091156D01*
X0188760Y0091073D01*
X0188849Y0090987D01*
X0188935Y0090898D01*
X0189018Y0090807D01*
X0189099Y0090713D01*
X0189176Y0090616D01*
X0189250Y0090517D01*
X0189321Y0090416D01*
X0189389Y0090313D01*
X0189454Y0090207D01*
X0189515Y0090100D01*
X0189573Y0089990D01*
X0189627Y0089879D01*
X0189678Y0089767D01*
X0189726Y0089652D01*
X0189769Y0089537D01*
X0189809Y0089420D01*
X0189846Y0089301D01*
X0189878Y0089182D01*
X0189907Y0089062D01*
X0189932Y0088941D01*
X0189954Y0088819D01*
X0189971Y0088696D01*
X0189985Y0088574D01*
X0189994Y0088450D01*
X0190000Y0088327D01*
X0190002Y0088203D01*
X0190002Y0029148D01*
X0190000Y0029024D01*
X0189994Y0028901D01*
X0189985Y0028777D01*
X0189971Y0028655D01*
X0189954Y0028532D01*
X0189932Y0028410D01*
X0189907Y0028289D01*
X0189878Y0028169D01*
X0189846Y0028050D01*
X0189809Y0027931D01*
X0189769Y0027814D01*
X0189726Y0027699D01*
X0189678Y0027584D01*
X0189627Y0027472D01*
X0189573Y0027361D01*
X0189515Y0027251D01*
X0189454Y0027144D01*
X0189389Y0027038D01*
X0189321Y0026935D01*
X0189250Y0026834D01*
X0189176Y0026735D01*
X0189099Y0026638D01*
X0189018Y0026544D01*
X0188935Y0026453D01*
X0188849Y0026364D01*
X0188760Y0026278D01*
X0188669Y0026195D01*
X0188575Y0026114D01*
X0188478Y0026037D01*
X0188379Y0025963D01*
X0188278Y0025892D01*
X0188175Y0025824D01*
X0188069Y0025759D01*
X0187962Y0025698D01*
X0187852Y0025640D01*
X0187741Y0025586D01*
X0187629Y0025535D01*
X0187514Y0025487D01*
X0187399Y0025444D01*
X0187282Y0025404D01*
X0187163Y0025367D01*
X0187044Y0025335D01*
X0186924Y0025306D01*
X0186803Y0025281D01*
X0186681Y0025259D01*
X0186558Y0025242D01*
X0186436Y0025228D01*
X0186312Y0025219D01*
X0186189Y0025213D01*
X0186065Y0025211D01*
X0185941Y0025213D01*
X0185818Y0025219D01*
X0185694Y0025228D01*
X0185572Y0025242D01*
X0185449Y0025259D01*
X0185327Y0025281D01*
X0185206Y0025306D01*
X0185086Y0025335D01*
X0184967Y0025367D01*
X0184848Y0025404D01*
X0184731Y0025444D01*
X0184616Y0025487D01*
X0184501Y0025535D01*
X0184389Y0025586D01*
X0184278Y0025640D01*
X0184168Y0025698D01*
X0184061Y0025759D01*
X0183955Y0025824D01*
X0183852Y0025892D01*
X0183751Y0025963D01*
X0183652Y0026037D01*
X0183555Y0026114D01*
X0183461Y0026195D01*
X0183370Y0026278D01*
X0183281Y0026364D01*
X0183195Y0026453D01*
X0183112Y0026544D01*
X0183031Y0026638D01*
X0182954Y0026735D01*
X0182880Y0026834D01*
X0182809Y0026935D01*
X0182741Y0027038D01*
X0182676Y0027144D01*
X0182615Y0027251D01*
X0182557Y0027361D01*
X0182503Y0027472D01*
X0182452Y0027584D01*
X0182404Y0027699D01*
X0182361Y0027814D01*
X0182321Y0027931D01*
X0182284Y0028050D01*
X0182252Y0028169D01*
X0182223Y0028289D01*
X0182198Y0028410D01*
X0182176Y0028532D01*
X0182159Y0028655D01*
X0182145Y0028777D01*
X0182136Y0028901D01*
X0182130Y0029024D01*
X0182128Y0029148D01*
X0245613Y0027180D02*
X0245615Y0027327D01*
X0245621Y0027473D01*
X0245631Y0027619D01*
X0245645Y0027765D01*
X0245663Y0027911D01*
X0245684Y0028056D01*
X0245710Y0028200D01*
X0245740Y0028344D01*
X0245773Y0028486D01*
X0245810Y0028628D01*
X0245851Y0028769D01*
X0245896Y0028908D01*
X0245945Y0029047D01*
X0245997Y0029184D01*
X0246054Y0029319D01*
X0246113Y0029453D01*
X0246177Y0029585D01*
X0246244Y0029715D01*
X0246314Y0029844D01*
X0246388Y0029971D01*
X0246465Y0030095D01*
X0246546Y0030218D01*
X0246630Y0030338D01*
X0246717Y0030456D01*
X0246807Y0030571D01*
X0246900Y0030684D01*
X0246997Y0030795D01*
X0247096Y0030903D01*
X0247198Y0031008D01*
X0247303Y0031110D01*
X0247411Y0031209D01*
X0247522Y0031306D01*
X0247635Y0031399D01*
X0247750Y0031489D01*
X0247868Y0031576D01*
X0247988Y0031660D01*
X0248111Y0031741D01*
X0248235Y0031818D01*
X0248362Y0031892D01*
X0248491Y0031962D01*
X0248621Y0032029D01*
X0248753Y0032093D01*
X0248887Y0032152D01*
X0249022Y0032209D01*
X0249159Y0032261D01*
X0249298Y0032310D01*
X0249437Y0032355D01*
X0249578Y0032396D01*
X0249720Y0032433D01*
X0249862Y0032466D01*
X0250006Y0032496D01*
X0250150Y0032522D01*
X0250295Y0032543D01*
X0250441Y0032561D01*
X0250587Y0032575D01*
X0250733Y0032585D01*
X0250879Y0032591D01*
X0251026Y0032593D01*
X0251173Y0032591D01*
X0251319Y0032585D01*
X0251465Y0032575D01*
X0251611Y0032561D01*
X0251757Y0032543D01*
X0251902Y0032522D01*
X0252046Y0032496D01*
X0252190Y0032466D01*
X0252332Y0032433D01*
X0252474Y0032396D01*
X0252615Y0032355D01*
X0252754Y0032310D01*
X0252893Y0032261D01*
X0253030Y0032209D01*
X0253165Y0032152D01*
X0253299Y0032093D01*
X0253431Y0032029D01*
X0253561Y0031962D01*
X0253690Y0031892D01*
X0253817Y0031818D01*
X0253941Y0031741D01*
X0254064Y0031660D01*
X0254184Y0031576D01*
X0254302Y0031489D01*
X0254417Y0031399D01*
X0254530Y0031306D01*
X0254641Y0031209D01*
X0254749Y0031110D01*
X0254854Y0031008D01*
X0254956Y0030903D01*
X0255055Y0030795D01*
X0255152Y0030684D01*
X0255245Y0030571D01*
X0255335Y0030456D01*
X0255422Y0030338D01*
X0255506Y0030218D01*
X0255587Y0030095D01*
X0255664Y0029971D01*
X0255738Y0029844D01*
X0255808Y0029715D01*
X0255875Y0029585D01*
X0255939Y0029453D01*
X0255998Y0029319D01*
X0256055Y0029184D01*
X0256107Y0029047D01*
X0256156Y0028908D01*
X0256201Y0028769D01*
X0256242Y0028628D01*
X0256279Y0028486D01*
X0256312Y0028344D01*
X0256342Y0028200D01*
X0256368Y0028056D01*
X0256389Y0027911D01*
X0256407Y0027765D01*
X0256421Y0027619D01*
X0256431Y0027473D01*
X0256437Y0027327D01*
X0256439Y0027180D01*
X0256437Y0027033D01*
X0256431Y0026887D01*
X0256421Y0026741D01*
X0256407Y0026595D01*
X0256389Y0026449D01*
X0256368Y0026304D01*
X0256342Y0026160D01*
X0256312Y0026016D01*
X0256279Y0025874D01*
X0256242Y0025732D01*
X0256201Y0025591D01*
X0256156Y0025452D01*
X0256107Y0025313D01*
X0256055Y0025176D01*
X0255998Y0025041D01*
X0255939Y0024907D01*
X0255875Y0024775D01*
X0255808Y0024645D01*
X0255738Y0024516D01*
X0255664Y0024389D01*
X0255587Y0024265D01*
X0255506Y0024142D01*
X0255422Y0024022D01*
X0255335Y0023904D01*
X0255245Y0023789D01*
X0255152Y0023676D01*
X0255055Y0023565D01*
X0254956Y0023457D01*
X0254854Y0023352D01*
X0254749Y0023250D01*
X0254641Y0023151D01*
X0254530Y0023054D01*
X0254417Y0022961D01*
X0254302Y0022871D01*
X0254184Y0022784D01*
X0254064Y0022700D01*
X0253941Y0022619D01*
X0253817Y0022542D01*
X0253690Y0022468D01*
X0253561Y0022398D01*
X0253431Y0022331D01*
X0253299Y0022267D01*
X0253165Y0022208D01*
X0253030Y0022151D01*
X0252893Y0022099D01*
X0252754Y0022050D01*
X0252615Y0022005D01*
X0252474Y0021964D01*
X0252332Y0021927D01*
X0252190Y0021894D01*
X0252046Y0021864D01*
X0251902Y0021838D01*
X0251757Y0021817D01*
X0251611Y0021799D01*
X0251465Y0021785D01*
X0251319Y0021775D01*
X0251173Y0021769D01*
X0251026Y0021767D01*
X0250879Y0021769D01*
X0250733Y0021775D01*
X0250587Y0021785D01*
X0250441Y0021799D01*
X0250295Y0021817D01*
X0250150Y0021838D01*
X0250006Y0021864D01*
X0249862Y0021894D01*
X0249720Y0021927D01*
X0249578Y0021964D01*
X0249437Y0022005D01*
X0249298Y0022050D01*
X0249159Y0022099D01*
X0249022Y0022151D01*
X0248887Y0022208D01*
X0248753Y0022267D01*
X0248621Y0022331D01*
X0248491Y0022398D01*
X0248362Y0022468D01*
X0248235Y0022542D01*
X0248111Y0022619D01*
X0247988Y0022700D01*
X0247868Y0022784D01*
X0247750Y0022871D01*
X0247635Y0022961D01*
X0247522Y0023054D01*
X0247411Y0023151D01*
X0247303Y0023250D01*
X0247198Y0023352D01*
X0247096Y0023457D01*
X0246997Y0023565D01*
X0246900Y0023676D01*
X0246807Y0023789D01*
X0246717Y0023904D01*
X0246630Y0024022D01*
X0246546Y0024142D01*
X0246465Y0024265D01*
X0246388Y0024389D01*
X0246314Y0024516D01*
X0246244Y0024645D01*
X0246177Y0024775D01*
X0246113Y0024907D01*
X0246054Y0025041D01*
X0245997Y0025176D01*
X0245945Y0025313D01*
X0245896Y0025452D01*
X0245851Y0025591D01*
X0245810Y0025732D01*
X0245773Y0025874D01*
X0245740Y0026016D01*
X0245710Y0026160D01*
X0245684Y0026304D01*
X0245663Y0026449D01*
X0245645Y0026595D01*
X0245631Y0026741D01*
X0245621Y0026887D01*
X0245615Y0027033D01*
X0245613Y0027180D01*
X0245613Y0220093D02*
X0245615Y0220240D01*
X0245621Y0220386D01*
X0245631Y0220532D01*
X0245645Y0220678D01*
X0245663Y0220824D01*
X0245684Y0220969D01*
X0245710Y0221113D01*
X0245740Y0221257D01*
X0245773Y0221399D01*
X0245810Y0221541D01*
X0245851Y0221682D01*
X0245896Y0221821D01*
X0245945Y0221960D01*
X0245997Y0222097D01*
X0246054Y0222232D01*
X0246113Y0222366D01*
X0246177Y0222498D01*
X0246244Y0222628D01*
X0246314Y0222757D01*
X0246388Y0222884D01*
X0246465Y0223008D01*
X0246546Y0223131D01*
X0246630Y0223251D01*
X0246717Y0223369D01*
X0246807Y0223484D01*
X0246900Y0223597D01*
X0246997Y0223708D01*
X0247096Y0223816D01*
X0247198Y0223921D01*
X0247303Y0224023D01*
X0247411Y0224122D01*
X0247522Y0224219D01*
X0247635Y0224312D01*
X0247750Y0224402D01*
X0247868Y0224489D01*
X0247988Y0224573D01*
X0248111Y0224654D01*
X0248235Y0224731D01*
X0248362Y0224805D01*
X0248491Y0224875D01*
X0248621Y0224942D01*
X0248753Y0225006D01*
X0248887Y0225065D01*
X0249022Y0225122D01*
X0249159Y0225174D01*
X0249298Y0225223D01*
X0249437Y0225268D01*
X0249578Y0225309D01*
X0249720Y0225346D01*
X0249862Y0225379D01*
X0250006Y0225409D01*
X0250150Y0225435D01*
X0250295Y0225456D01*
X0250441Y0225474D01*
X0250587Y0225488D01*
X0250733Y0225498D01*
X0250879Y0225504D01*
X0251026Y0225506D01*
X0251173Y0225504D01*
X0251319Y0225498D01*
X0251465Y0225488D01*
X0251611Y0225474D01*
X0251757Y0225456D01*
X0251902Y0225435D01*
X0252046Y0225409D01*
X0252190Y0225379D01*
X0252332Y0225346D01*
X0252474Y0225309D01*
X0252615Y0225268D01*
X0252754Y0225223D01*
X0252893Y0225174D01*
X0253030Y0225122D01*
X0253165Y0225065D01*
X0253299Y0225006D01*
X0253431Y0224942D01*
X0253561Y0224875D01*
X0253690Y0224805D01*
X0253817Y0224731D01*
X0253941Y0224654D01*
X0254064Y0224573D01*
X0254184Y0224489D01*
X0254302Y0224402D01*
X0254417Y0224312D01*
X0254530Y0224219D01*
X0254641Y0224122D01*
X0254749Y0224023D01*
X0254854Y0223921D01*
X0254956Y0223816D01*
X0255055Y0223708D01*
X0255152Y0223597D01*
X0255245Y0223484D01*
X0255335Y0223369D01*
X0255422Y0223251D01*
X0255506Y0223131D01*
X0255587Y0223008D01*
X0255664Y0222884D01*
X0255738Y0222757D01*
X0255808Y0222628D01*
X0255875Y0222498D01*
X0255939Y0222366D01*
X0255998Y0222232D01*
X0256055Y0222097D01*
X0256107Y0221960D01*
X0256156Y0221821D01*
X0256201Y0221682D01*
X0256242Y0221541D01*
X0256279Y0221399D01*
X0256312Y0221257D01*
X0256342Y0221113D01*
X0256368Y0220969D01*
X0256389Y0220824D01*
X0256407Y0220678D01*
X0256421Y0220532D01*
X0256431Y0220386D01*
X0256437Y0220240D01*
X0256439Y0220093D01*
X0256437Y0219946D01*
X0256431Y0219800D01*
X0256421Y0219654D01*
X0256407Y0219508D01*
X0256389Y0219362D01*
X0256368Y0219217D01*
X0256342Y0219073D01*
X0256312Y0218929D01*
X0256279Y0218787D01*
X0256242Y0218645D01*
X0256201Y0218504D01*
X0256156Y0218365D01*
X0256107Y0218226D01*
X0256055Y0218089D01*
X0255998Y0217954D01*
X0255939Y0217820D01*
X0255875Y0217688D01*
X0255808Y0217558D01*
X0255738Y0217429D01*
X0255664Y0217302D01*
X0255587Y0217178D01*
X0255506Y0217055D01*
X0255422Y0216935D01*
X0255335Y0216817D01*
X0255245Y0216702D01*
X0255152Y0216589D01*
X0255055Y0216478D01*
X0254956Y0216370D01*
X0254854Y0216265D01*
X0254749Y0216163D01*
X0254641Y0216064D01*
X0254530Y0215967D01*
X0254417Y0215874D01*
X0254302Y0215784D01*
X0254184Y0215697D01*
X0254064Y0215613D01*
X0253941Y0215532D01*
X0253817Y0215455D01*
X0253690Y0215381D01*
X0253561Y0215311D01*
X0253431Y0215244D01*
X0253299Y0215180D01*
X0253165Y0215121D01*
X0253030Y0215064D01*
X0252893Y0215012D01*
X0252754Y0214963D01*
X0252615Y0214918D01*
X0252474Y0214877D01*
X0252332Y0214840D01*
X0252190Y0214807D01*
X0252046Y0214777D01*
X0251902Y0214751D01*
X0251757Y0214730D01*
X0251611Y0214712D01*
X0251465Y0214698D01*
X0251319Y0214688D01*
X0251173Y0214682D01*
X0251026Y0214680D01*
X0250879Y0214682D01*
X0250733Y0214688D01*
X0250587Y0214698D01*
X0250441Y0214712D01*
X0250295Y0214730D01*
X0250150Y0214751D01*
X0250006Y0214777D01*
X0249862Y0214807D01*
X0249720Y0214840D01*
X0249578Y0214877D01*
X0249437Y0214918D01*
X0249298Y0214963D01*
X0249159Y0215012D01*
X0249022Y0215064D01*
X0248887Y0215121D01*
X0248753Y0215180D01*
X0248621Y0215244D01*
X0248491Y0215311D01*
X0248362Y0215381D01*
X0248235Y0215455D01*
X0248111Y0215532D01*
X0247988Y0215613D01*
X0247868Y0215697D01*
X0247750Y0215784D01*
X0247635Y0215874D01*
X0247522Y0215967D01*
X0247411Y0216064D01*
X0247303Y0216163D01*
X0247198Y0216265D01*
X0247096Y0216370D01*
X0246997Y0216478D01*
X0246900Y0216589D01*
X0246807Y0216702D01*
X0246717Y0216817D01*
X0246630Y0216935D01*
X0246546Y0217055D01*
X0246465Y0217178D01*
X0246388Y0217302D01*
X0246314Y0217429D01*
X0246244Y0217558D01*
X0246177Y0217688D01*
X0246113Y0217820D01*
X0246054Y0217954D01*
X0245997Y0218089D01*
X0245945Y0218226D01*
X0245896Y0218365D01*
X0245851Y0218504D01*
X0245810Y0218645D01*
X0245773Y0218787D01*
X0245740Y0218929D01*
X0245710Y0219073D01*
X0245684Y0219217D01*
X0245663Y0219362D01*
X0245645Y0219508D01*
X0245631Y0219654D01*
X0245621Y0219800D01*
X0245615Y0219946D01*
X0245613Y0220093D01*
X0017267Y0220093D02*
X0017269Y0220240D01*
X0017275Y0220386D01*
X0017285Y0220532D01*
X0017299Y0220678D01*
X0017317Y0220824D01*
X0017338Y0220969D01*
X0017364Y0221113D01*
X0017394Y0221257D01*
X0017427Y0221399D01*
X0017464Y0221541D01*
X0017505Y0221682D01*
X0017550Y0221821D01*
X0017599Y0221960D01*
X0017651Y0222097D01*
X0017708Y0222232D01*
X0017767Y0222366D01*
X0017831Y0222498D01*
X0017898Y0222628D01*
X0017968Y0222757D01*
X0018042Y0222884D01*
X0018119Y0223008D01*
X0018200Y0223131D01*
X0018284Y0223251D01*
X0018371Y0223369D01*
X0018461Y0223484D01*
X0018554Y0223597D01*
X0018651Y0223708D01*
X0018750Y0223816D01*
X0018852Y0223921D01*
X0018957Y0224023D01*
X0019065Y0224122D01*
X0019176Y0224219D01*
X0019289Y0224312D01*
X0019404Y0224402D01*
X0019522Y0224489D01*
X0019642Y0224573D01*
X0019765Y0224654D01*
X0019889Y0224731D01*
X0020016Y0224805D01*
X0020145Y0224875D01*
X0020275Y0224942D01*
X0020407Y0225006D01*
X0020541Y0225065D01*
X0020676Y0225122D01*
X0020813Y0225174D01*
X0020952Y0225223D01*
X0021091Y0225268D01*
X0021232Y0225309D01*
X0021374Y0225346D01*
X0021516Y0225379D01*
X0021660Y0225409D01*
X0021804Y0225435D01*
X0021949Y0225456D01*
X0022095Y0225474D01*
X0022241Y0225488D01*
X0022387Y0225498D01*
X0022533Y0225504D01*
X0022680Y0225506D01*
X0022827Y0225504D01*
X0022973Y0225498D01*
X0023119Y0225488D01*
X0023265Y0225474D01*
X0023411Y0225456D01*
X0023556Y0225435D01*
X0023700Y0225409D01*
X0023844Y0225379D01*
X0023986Y0225346D01*
X0024128Y0225309D01*
X0024269Y0225268D01*
X0024408Y0225223D01*
X0024547Y0225174D01*
X0024684Y0225122D01*
X0024819Y0225065D01*
X0024953Y0225006D01*
X0025085Y0224942D01*
X0025215Y0224875D01*
X0025344Y0224805D01*
X0025471Y0224731D01*
X0025595Y0224654D01*
X0025718Y0224573D01*
X0025838Y0224489D01*
X0025956Y0224402D01*
X0026071Y0224312D01*
X0026184Y0224219D01*
X0026295Y0224122D01*
X0026403Y0224023D01*
X0026508Y0223921D01*
X0026610Y0223816D01*
X0026709Y0223708D01*
X0026806Y0223597D01*
X0026899Y0223484D01*
X0026989Y0223369D01*
X0027076Y0223251D01*
X0027160Y0223131D01*
X0027241Y0223008D01*
X0027318Y0222884D01*
X0027392Y0222757D01*
X0027462Y0222628D01*
X0027529Y0222498D01*
X0027593Y0222366D01*
X0027652Y0222232D01*
X0027709Y0222097D01*
X0027761Y0221960D01*
X0027810Y0221821D01*
X0027855Y0221682D01*
X0027896Y0221541D01*
X0027933Y0221399D01*
X0027966Y0221257D01*
X0027996Y0221113D01*
X0028022Y0220969D01*
X0028043Y0220824D01*
X0028061Y0220678D01*
X0028075Y0220532D01*
X0028085Y0220386D01*
X0028091Y0220240D01*
X0028093Y0220093D01*
X0028091Y0219946D01*
X0028085Y0219800D01*
X0028075Y0219654D01*
X0028061Y0219508D01*
X0028043Y0219362D01*
X0028022Y0219217D01*
X0027996Y0219073D01*
X0027966Y0218929D01*
X0027933Y0218787D01*
X0027896Y0218645D01*
X0027855Y0218504D01*
X0027810Y0218365D01*
X0027761Y0218226D01*
X0027709Y0218089D01*
X0027652Y0217954D01*
X0027593Y0217820D01*
X0027529Y0217688D01*
X0027462Y0217558D01*
X0027392Y0217429D01*
X0027318Y0217302D01*
X0027241Y0217178D01*
X0027160Y0217055D01*
X0027076Y0216935D01*
X0026989Y0216817D01*
X0026899Y0216702D01*
X0026806Y0216589D01*
X0026709Y0216478D01*
X0026610Y0216370D01*
X0026508Y0216265D01*
X0026403Y0216163D01*
X0026295Y0216064D01*
X0026184Y0215967D01*
X0026071Y0215874D01*
X0025956Y0215784D01*
X0025838Y0215697D01*
X0025718Y0215613D01*
X0025595Y0215532D01*
X0025471Y0215455D01*
X0025344Y0215381D01*
X0025215Y0215311D01*
X0025085Y0215244D01*
X0024953Y0215180D01*
X0024819Y0215121D01*
X0024684Y0215064D01*
X0024547Y0215012D01*
X0024408Y0214963D01*
X0024269Y0214918D01*
X0024128Y0214877D01*
X0023986Y0214840D01*
X0023844Y0214807D01*
X0023700Y0214777D01*
X0023556Y0214751D01*
X0023411Y0214730D01*
X0023265Y0214712D01*
X0023119Y0214698D01*
X0022973Y0214688D01*
X0022827Y0214682D01*
X0022680Y0214680D01*
X0022533Y0214682D01*
X0022387Y0214688D01*
X0022241Y0214698D01*
X0022095Y0214712D01*
X0021949Y0214730D01*
X0021804Y0214751D01*
X0021660Y0214777D01*
X0021516Y0214807D01*
X0021374Y0214840D01*
X0021232Y0214877D01*
X0021091Y0214918D01*
X0020952Y0214963D01*
X0020813Y0215012D01*
X0020676Y0215064D01*
X0020541Y0215121D01*
X0020407Y0215180D01*
X0020275Y0215244D01*
X0020145Y0215311D01*
X0020016Y0215381D01*
X0019889Y0215455D01*
X0019765Y0215532D01*
X0019642Y0215613D01*
X0019522Y0215697D01*
X0019404Y0215784D01*
X0019289Y0215874D01*
X0019176Y0215967D01*
X0019065Y0216064D01*
X0018957Y0216163D01*
X0018852Y0216265D01*
X0018750Y0216370D01*
X0018651Y0216478D01*
X0018554Y0216589D01*
X0018461Y0216702D01*
X0018371Y0216817D01*
X0018284Y0216935D01*
X0018200Y0217055D01*
X0018119Y0217178D01*
X0018042Y0217302D01*
X0017968Y0217429D01*
X0017898Y0217558D01*
X0017831Y0217688D01*
X0017767Y0217820D01*
X0017708Y0217954D01*
X0017651Y0218089D01*
X0017599Y0218226D01*
X0017550Y0218365D01*
X0017505Y0218504D01*
X0017464Y0218645D01*
X0017427Y0218787D01*
X0017394Y0218929D01*
X0017364Y0219073D01*
X0017338Y0219217D01*
X0017317Y0219362D01*
X0017299Y0219508D01*
X0017285Y0219654D01*
X0017275Y0219800D01*
X0017269Y0219946D01*
X0017267Y0220093D01*
D13*
X0041853Y0215093D03*
D14*
X0051853Y0215093D03*
X0061853Y0215093D03*
X0071853Y0215093D03*
X0081853Y0215093D03*
X0091853Y0215093D03*
X0101853Y0215093D03*
X0111853Y0215093D03*
X0121853Y0215093D03*
X0131853Y0215093D03*
X0141853Y0215093D03*
X0151853Y0215093D03*
X0161853Y0215093D03*
X0171853Y0215093D03*
X0181853Y0215093D03*
X0191853Y0215093D03*
X0201853Y0215093D03*
X0211853Y0215093D03*
X0221853Y0215093D03*
X0231853Y0215093D03*
X0231853Y0225093D03*
X0221853Y0225093D03*
X0211853Y0225093D03*
X0201853Y0225093D03*
X0191853Y0225093D03*
X0181853Y0225093D03*
X0171853Y0225093D03*
X0161853Y0225093D03*
X0151853Y0225093D03*
X0141853Y0225093D03*
X0131853Y0225093D03*
X0121853Y0225093D03*
X0111853Y0225093D03*
X0101853Y0225093D03*
X0091853Y0225093D03*
X0081853Y0225093D03*
X0071853Y0225093D03*
X0061853Y0225093D03*
X0051853Y0225093D03*
X0041853Y0225093D03*
D15*
X0021400Y0198400D03*
D16*
X0021400Y0184620D03*
D17*
X0051853Y0215093D02*
X0057000Y0220240D01*
X0057000Y0227900D01*
X0059400Y0230300D01*
X0214100Y0230300D01*
X0216800Y0227600D01*
X0216800Y0211100D01*
X0223400Y0204500D01*
X0227900Y0204500D01*
X0238900Y0193500D01*
X0238900Y0193400D01*
D18*
X0248900Y0193400D02*
X0248900Y0173400D01*
X0248900Y0153400D01*
X0248900Y0133400D01*
X0248900Y0108400D01*
X0238900Y0098400D01*
X0238900Y0068400D01*
X0238900Y0038400D01*
X0226400Y0038400D01*
X0226400Y0068400D02*
X0238900Y0068400D01*
X0238900Y0098400D02*
X0226400Y0098400D01*
X0248900Y0193400D02*
X0248900Y0198400D01*
X0232207Y0215093D01*
X0231853Y0215093D01*
X0064900Y0137600D02*
X0043900Y0105900D01*
X0043900Y0073400D01*
X0064900Y0137600D02*
X0043900Y0175900D01*
X0021400Y0198400D01*
D19*
X0043900Y0175900D03*
X0064900Y0137600D03*
X0066400Y0125900D03*
X0043900Y0105900D03*
X0043900Y0073400D03*
X0193900Y0140900D03*
X0193900Y0160900D03*
X0193900Y0180900D03*
D20*
X0015712Y0018697D02*
X0014197Y0020212D01*
X0013125Y0022069D01*
X0012570Y0024139D01*
X0012500Y0025211D01*
X0012500Y0222061D01*
X0012570Y0223133D01*
X0013125Y0225204D01*
X0014197Y0227060D01*
X0015712Y0228576D01*
X0017569Y0229647D01*
X0019639Y0230202D01*
X0020711Y0230272D01*
X0039201Y0230272D01*
X0038567Y0230010D01*
X0036936Y0228378D01*
X0036053Y0226247D01*
X0036053Y0223939D01*
X0036936Y0221807D01*
X0037850Y0220893D01*
X0037400Y0220893D01*
X0036053Y0219546D01*
X0036053Y0210640D01*
X0037400Y0209293D01*
X0046305Y0209293D01*
X0047653Y0210640D01*
X0047653Y0211090D01*
X0048567Y0210176D01*
X0050699Y0209293D01*
X0053006Y0209293D01*
X0055138Y0210176D01*
X0056770Y0211807D01*
X0056853Y0212008D01*
X0056936Y0211807D01*
X0058567Y0210176D01*
X0060699Y0209293D01*
X0063006Y0209293D01*
X0065138Y0210176D01*
X0066770Y0211807D01*
X0066853Y0212008D01*
X0066936Y0211807D01*
X0068567Y0210176D01*
X0068753Y0210099D01*
X0068753Y0188031D01*
X0069225Y0186891D01*
X0070097Y0186019D01*
X0084572Y0171544D01*
X0085444Y0170672D01*
X0086583Y0170200D01*
X0088731Y0170200D01*
X0088813Y0170001D01*
X0090415Y0168400D01*
X0088813Y0166799D01*
X0087900Y0164593D01*
X0087900Y0162207D01*
X0088813Y0160001D01*
X0090501Y0158313D01*
X0092707Y0157400D01*
X0095093Y0157400D01*
X0097299Y0158313D01*
X0098987Y0160001D01*
X0099900Y0162207D01*
X0099900Y0164593D01*
X0098987Y0166799D01*
X0097385Y0168400D01*
X0098987Y0170001D01*
X0099110Y0170300D01*
X0118690Y0170300D01*
X0118813Y0170001D01*
X0120415Y0168400D01*
X0118813Y0166799D01*
X0117900Y0164593D01*
X0117900Y0162207D01*
X0118813Y0160001D01*
X0120501Y0158313D01*
X0122707Y0157400D01*
X0125093Y0157400D01*
X0127299Y0158313D01*
X0128987Y0160001D01*
X0129900Y0162207D01*
X0129900Y0164593D01*
X0128987Y0166799D01*
X0127385Y0168400D01*
X0128987Y0170001D01*
X0129110Y0170300D01*
X0148690Y0170300D01*
X0148813Y0170001D01*
X0150415Y0168400D01*
X0148813Y0166799D01*
X0147900Y0164593D01*
X0147900Y0162207D01*
X0148813Y0160001D01*
X0150501Y0158313D01*
X0152707Y0157400D01*
X0155093Y0157400D01*
X0157299Y0158313D01*
X0158987Y0160001D01*
X0159900Y0162207D01*
X0159900Y0164593D01*
X0158987Y0166799D01*
X0157385Y0168400D01*
X0158987Y0170001D01*
X0159900Y0172207D01*
X0159900Y0174593D01*
X0158987Y0176799D01*
X0158519Y0177266D01*
X0158832Y0177396D01*
X0159257Y0177680D01*
X0159620Y0178043D01*
X0159904Y0178468D01*
X0160100Y0178942D01*
X0160200Y0179444D01*
X0160200Y0183400D01*
X0160200Y0187356D01*
X0160100Y0187858D01*
X0159904Y0188332D01*
X0159620Y0188757D01*
X0159257Y0189120D01*
X0158832Y0189404D01*
X0158358Y0189600D01*
X0157856Y0189700D01*
X0153900Y0189700D01*
X0153900Y0183400D01*
X0123900Y0183400D01*
X0123900Y0183400D01*
X0123900Y0189700D01*
X0127856Y0189700D01*
X0128358Y0189600D01*
X0128832Y0189404D01*
X0129257Y0189120D01*
X0129620Y0188757D01*
X0129904Y0188332D01*
X0130100Y0187858D01*
X0130200Y0187356D01*
X0130200Y0183400D01*
X0123900Y0183400D01*
X0123900Y0183400D01*
X0123900Y0183400D01*
X0117600Y0183400D01*
X0117600Y0187356D01*
X0117700Y0187858D01*
X0117896Y0188332D01*
X0118180Y0188757D01*
X0118543Y0189120D01*
X0118968Y0189404D01*
X0119442Y0189600D01*
X0119944Y0189700D01*
X0123900Y0189700D01*
X0123900Y0183400D01*
X0130200Y0183400D01*
X0130200Y0179444D01*
X0130100Y0178942D01*
X0129904Y0178468D01*
X0129620Y0178043D01*
X0129257Y0177680D01*
X0128832Y0177396D01*
X0128519Y0177266D01*
X0128987Y0176799D01*
X0129110Y0176500D01*
X0148690Y0176500D01*
X0148813Y0176799D01*
X0149281Y0177266D01*
X0148968Y0177396D01*
X0148543Y0177680D01*
X0148180Y0178043D01*
X0147896Y0178468D01*
X0147700Y0178942D01*
X0147600Y0179444D01*
X0147600Y0183400D01*
X0153900Y0183400D01*
X0153900Y0183400D01*
X0160200Y0183400D01*
X0153900Y0183400D01*
X0153900Y0183400D01*
X0153900Y0183400D01*
X0153900Y0189700D01*
X0149944Y0189700D01*
X0149442Y0189600D01*
X0148968Y0189404D01*
X0148543Y0189120D01*
X0148180Y0188757D01*
X0147896Y0188332D01*
X0147700Y0187858D01*
X0147600Y0187356D01*
X0147600Y0183400D01*
X0153900Y0183400D01*
X0153900Y0186120D02*
X0153900Y0186120D01*
X0153900Y0189318D02*
X0153900Y0189318D01*
X0158960Y0189318D02*
X0190000Y0189318D01*
X0190000Y0186120D02*
X0160200Y0186120D01*
X0160200Y0182921D02*
X0189819Y0182921D01*
X0189819Y0183634D02*
X0189819Y0178166D01*
X0190000Y0177985D01*
X0190000Y0163815D01*
X0189819Y0163634D01*
X0189819Y0158166D01*
X0190000Y0157985D01*
X0190000Y0143815D01*
X0189819Y0143634D01*
X0189819Y0138166D01*
X0190000Y0137985D01*
X0190000Y0125124D01*
X0190594Y0123691D01*
X0191691Y0122594D01*
X0202500Y0111785D01*
X0202500Y0102985D01*
X0201313Y0101799D01*
X0200400Y0099593D01*
X0200400Y0097207D01*
X0201313Y0095001D01*
X0202500Y0093815D01*
X0202500Y0072985D01*
X0201313Y0071799D01*
X0200400Y0069593D01*
X0200400Y0067207D01*
X0201313Y0065001D01*
X0202500Y0063815D01*
X0202500Y0042985D01*
X0201313Y0041799D01*
X0200400Y0039593D01*
X0200400Y0037207D01*
X0201313Y0035001D01*
X0203001Y0033313D01*
X0205207Y0032400D01*
X0207593Y0032400D01*
X0209799Y0033313D01*
X0211400Y0034915D01*
X0213001Y0033313D01*
X0215207Y0032400D01*
X0217593Y0032400D01*
X0219799Y0033313D01*
X0220266Y0033781D01*
X0220396Y0033468D01*
X0220680Y0033043D01*
X0221043Y0032680D01*
X0221468Y0032396D01*
X0221942Y0032200D01*
X0222444Y0032100D01*
X0226400Y0032100D01*
X0230356Y0032100D01*
X0230858Y0032200D01*
X0231332Y0032396D01*
X0231757Y0032680D01*
X0232120Y0033043D01*
X0232404Y0033468D01*
X0232600Y0033942D01*
X0232700Y0034444D01*
X0232700Y0038400D01*
X0232700Y0042356D01*
X0232600Y0042858D01*
X0232404Y0043332D01*
X0232120Y0043757D01*
X0231757Y0044120D01*
X0231332Y0044404D01*
X0230858Y0044600D01*
X0230356Y0044700D01*
X0226400Y0044700D01*
X0226400Y0038400D01*
X0226400Y0038400D01*
X0232700Y0038400D01*
X0226400Y0038400D01*
X0226400Y0038400D01*
X0226400Y0044700D01*
X0222444Y0044700D01*
X0221942Y0044600D01*
X0221468Y0044404D01*
X0221043Y0044120D01*
X0220680Y0043757D01*
X0220396Y0043332D01*
X0220266Y0043019D01*
X0219799Y0043487D01*
X0217593Y0044400D01*
X0215207Y0044400D01*
X0213001Y0043487D01*
X0211400Y0041885D01*
X0210300Y0042985D01*
X0210300Y0063815D01*
X0211400Y0064915D01*
X0213001Y0063313D01*
X0215207Y0062400D01*
X0217593Y0062400D01*
X0219799Y0063313D01*
X0220266Y0063781D01*
X0220396Y0063468D01*
X0220680Y0063043D01*
X0221043Y0062680D01*
X0221468Y0062396D01*
X0221942Y0062200D01*
X0222444Y0062100D01*
X0226400Y0062100D01*
X0230356Y0062100D01*
X0230858Y0062200D01*
X0231332Y0062396D01*
X0231757Y0062680D01*
X0232120Y0063043D01*
X0232404Y0063468D01*
X0232600Y0063942D01*
X0232700Y0064444D01*
X0232700Y0068400D01*
X0232700Y0072356D01*
X0232600Y0072858D01*
X0232404Y0073332D01*
X0232120Y0073757D01*
X0231757Y0074120D01*
X0231332Y0074404D01*
X0230858Y0074600D01*
X0230356Y0074700D01*
X0226400Y0074700D01*
X0226400Y0068400D01*
X0226400Y0068400D01*
X0232700Y0068400D01*
X0226400Y0068400D01*
X0226400Y0068400D01*
X0226400Y0074700D01*
X0222444Y0074700D01*
X0221942Y0074600D01*
X0221468Y0074404D01*
X0221043Y0074120D01*
X0220680Y0073757D01*
X0220396Y0073332D01*
X0220266Y0073019D01*
X0219799Y0073487D01*
X0217593Y0074400D01*
X0215207Y0074400D01*
X0213001Y0073487D01*
X0211400Y0071885D01*
X0210300Y0072985D01*
X0210300Y0093815D01*
X0211400Y0094915D01*
X0213001Y0093313D01*
X0215207Y0092400D01*
X0217593Y0092400D01*
X0219799Y0093313D01*
X0220266Y0093781D01*
X0220396Y0093468D01*
X0220680Y0093043D01*
X0221043Y0092680D01*
X0221468Y0092396D01*
X0221942Y0092200D01*
X0222444Y0092100D01*
X0226400Y0092100D01*
X0230356Y0092100D01*
X0230858Y0092200D01*
X0231332Y0092396D01*
X0231757Y0092680D01*
X0232120Y0093043D01*
X0232404Y0093468D01*
X0232600Y0093942D01*
X0232700Y0094444D01*
X0232700Y0098400D01*
X0232700Y0102356D01*
X0232600Y0102858D01*
X0232404Y0103332D01*
X0232120Y0103757D01*
X0231757Y0104120D01*
X0231332Y0104404D01*
X0230858Y0104600D01*
X0230356Y0104700D01*
X0226400Y0104700D01*
X0226400Y0098400D01*
X0226400Y0098400D01*
X0232700Y0098400D01*
X0226400Y0098400D01*
X0226400Y0098400D01*
X0226400Y0104700D01*
X0222444Y0104700D01*
X0221942Y0104600D01*
X0221468Y0104404D01*
X0221043Y0104120D01*
X0220680Y0103757D01*
X0220396Y0103332D01*
X0220266Y0103019D01*
X0219799Y0103487D01*
X0217593Y0104400D01*
X0215207Y0104400D01*
X0213001Y0103487D01*
X0211400Y0101885D01*
X0210300Y0102985D01*
X0210300Y0114176D01*
X0209706Y0115609D01*
X0197800Y0127515D01*
X0197800Y0137985D01*
X0197981Y0138166D01*
X0197981Y0143634D01*
X0197800Y0143815D01*
X0197800Y0157985D01*
X0197981Y0158166D01*
X0197981Y0163634D01*
X0197800Y0163815D01*
X0197800Y0177985D01*
X0197981Y0178166D01*
X0197981Y0183634D01*
X0197800Y0183815D01*
X0197800Y0194651D01*
X0197981Y0195088D01*
X0197981Y0196712D01*
X0197360Y0198212D01*
X0196212Y0199360D01*
X0194712Y0199981D01*
X0193088Y0199981D01*
X0191588Y0199360D01*
X0190440Y0198212D01*
X0189819Y0196712D01*
X0189819Y0195088D01*
X0190000Y0194651D01*
X0190000Y0183815D01*
X0189819Y0183634D01*
X0193900Y0180900D02*
X0193900Y0160900D01*
X0193900Y0140900D01*
X0193900Y0125900D01*
X0206400Y0113400D01*
X0206400Y0098400D01*
X0206400Y0068400D01*
X0206400Y0038400D01*
X0200987Y0035790D02*
X0193602Y0035790D01*
X0193602Y0032591D02*
X0204745Y0032591D01*
X0208055Y0032591D02*
X0214745Y0032591D01*
X0218055Y0032591D02*
X0221176Y0032591D01*
X0226400Y0032591D02*
X0226400Y0032591D01*
X0226400Y0032100D02*
X0226400Y0038400D01*
X0226400Y0038400D01*
X0226400Y0032100D01*
X0226400Y0035790D02*
X0226400Y0035790D01*
X0226400Y0038988D02*
X0226400Y0038988D01*
X0226400Y0042187D02*
X0226400Y0042187D01*
X0232700Y0042187D02*
X0261206Y0042187D01*
X0261206Y0045385D02*
X0210300Y0045385D01*
X0210300Y0048584D02*
X0261206Y0048584D01*
X0261206Y0051782D02*
X0210300Y0051782D01*
X0210300Y0054981D02*
X0261206Y0054981D01*
X0261206Y0058179D02*
X0210300Y0058179D01*
X0210300Y0061378D02*
X0261206Y0061378D01*
X0261206Y0064576D02*
X0232700Y0064576D01*
X0232700Y0067775D02*
X0261206Y0067775D01*
X0261206Y0070973D02*
X0232700Y0070973D01*
X0231679Y0074172D02*
X0261206Y0074172D01*
X0261206Y0077370D02*
X0210300Y0077370D01*
X0210300Y0074172D02*
X0214655Y0074172D01*
X0218145Y0074172D02*
X0221121Y0074172D01*
X0226400Y0074172D02*
X0226400Y0074172D01*
X0226400Y0070973D02*
X0226400Y0070973D01*
X0226400Y0068400D02*
X0226400Y0062100D01*
X0226400Y0068400D01*
X0226400Y0068400D01*
X0226400Y0067775D02*
X0226400Y0067775D01*
X0226400Y0064576D02*
X0226400Y0064576D01*
X0211739Y0064576D02*
X0211061Y0064576D01*
X0202500Y0061378D02*
X0193602Y0061378D01*
X0193602Y0064576D02*
X0201739Y0064576D01*
X0200400Y0067775D02*
X0193602Y0067775D01*
X0193602Y0070973D02*
X0200972Y0070973D01*
X0202500Y0074172D02*
X0193602Y0074172D01*
X0193602Y0077370D02*
X0202500Y0077370D01*
X0202500Y0080569D02*
X0193602Y0080569D01*
X0193602Y0083767D02*
X0202500Y0083767D01*
X0202500Y0086966D02*
X0193602Y0086966D01*
X0193602Y0089702D02*
X0192455Y0092473D01*
X0190335Y0094593D01*
X0187565Y0095740D01*
X0184566Y0095740D01*
X0181796Y0094593D01*
X0179676Y0092473D01*
X0179676Y0092473D01*
X0178528Y0089702D01*
X0178528Y0028432D01*
X0178528Y0027649D01*
X0179676Y0024879D01*
X0179676Y0024879D01*
X0181796Y0022758D01*
X0184566Y0021611D01*
X0187565Y0021611D01*
X0190335Y0022758D01*
X0192455Y0024879D01*
X0193602Y0027649D01*
X0193602Y0089702D01*
X0193411Y0090164D02*
X0202500Y0090164D01*
X0202500Y0093363D02*
X0191565Y0093363D01*
X0192455Y0092473D02*
X0192455Y0092473D01*
X0190335Y0094593D02*
X0190335Y0094593D01*
X0181796Y0094593D02*
X0181796Y0094593D01*
X0180566Y0093363D02*
X0034900Y0093363D01*
X0034900Y0092207D02*
X0034900Y0094593D01*
X0033987Y0096799D01*
X0032299Y0098487D01*
X0030093Y0099400D01*
X0027707Y0099400D01*
X0025501Y0098487D01*
X0023900Y0096885D01*
X0022299Y0098487D01*
X0020093Y0099400D01*
X0017707Y0099400D01*
X0015501Y0098487D01*
X0013813Y0096799D01*
X0012900Y0094593D01*
X0012900Y0092207D01*
X0013813Y0090001D01*
X0015415Y0088400D01*
X0013813Y0086799D01*
X0012900Y0084593D01*
X0012900Y0082207D01*
X0013813Y0080001D01*
X0015501Y0078313D01*
X0017707Y0077400D01*
X0020093Y0077400D01*
X0022299Y0078313D01*
X0023900Y0079915D01*
X0025501Y0078313D01*
X0027707Y0077400D01*
X0030093Y0077400D01*
X0032299Y0078313D01*
X0033987Y0080001D01*
X0034900Y0082207D01*
X0034900Y0084593D01*
X0033987Y0086799D01*
X0032385Y0088400D01*
X0033987Y0090001D01*
X0034900Y0092207D01*
X0034054Y0090164D02*
X0178720Y0090164D01*
X0178528Y0086966D02*
X0033820Y0086966D01*
X0034900Y0083767D02*
X0178528Y0083767D01*
X0178528Y0080569D02*
X0034222Y0080569D01*
X0034085Y0096561D02*
X0200667Y0096561D01*
X0200469Y0099760D02*
X0012500Y0099760D01*
X0012500Y0102958D02*
X0202473Y0102958D01*
X0202500Y0106157D02*
X0012500Y0106157D01*
X0012500Y0109355D02*
X0202500Y0109355D01*
X0201731Y0112554D02*
X0030465Y0112554D01*
X0030093Y0112400D02*
X0032299Y0113313D01*
X0033987Y0115001D01*
X0034900Y0117207D01*
X0034900Y0119593D01*
X0033987Y0121799D01*
X0032385Y0123400D01*
X0033987Y0125001D01*
X0034900Y0127207D01*
X0034900Y0129593D01*
X0033987Y0131799D01*
X0032299Y0133487D01*
X0030093Y0134400D01*
X0027707Y0134400D01*
X0025501Y0133487D01*
X0023900Y0131885D01*
X0022299Y0133487D01*
X0020093Y0134400D01*
X0017707Y0134400D01*
X0015501Y0133487D01*
X0013813Y0131799D01*
X0012900Y0129593D01*
X0012900Y0127207D01*
X0013813Y0125001D01*
X0015415Y0123400D01*
X0013813Y0121799D01*
X0012900Y0119593D01*
X0012900Y0117207D01*
X0013813Y0115001D01*
X0015501Y0113313D01*
X0017707Y0112400D01*
X0020093Y0112400D01*
X0022299Y0113313D01*
X0023900Y0114915D01*
X0025501Y0113313D01*
X0027707Y0112400D01*
X0030093Y0112400D01*
X0027335Y0112554D02*
X0020465Y0112554D01*
X0017335Y0112554D02*
X0012500Y0112554D01*
X0012500Y0115752D02*
X0013502Y0115752D01*
X0012900Y0118951D02*
X0012500Y0118951D01*
X0012500Y0122149D02*
X0014164Y0122149D01*
X0013670Y0125348D02*
X0012500Y0125348D01*
X0012500Y0128546D02*
X0012900Y0128546D01*
X0012500Y0131745D02*
X0013791Y0131745D01*
X0012500Y0134943D02*
X0190000Y0134943D01*
X0190000Y0131745D02*
X0034009Y0131745D01*
X0034900Y0128546D02*
X0190000Y0128546D01*
X0190000Y0125348D02*
X0034130Y0125348D01*
X0033636Y0122149D02*
X0192135Y0122149D01*
X0195334Y0118951D02*
X0034900Y0118951D01*
X0034298Y0115752D02*
X0198532Y0115752D01*
X0203166Y0122149D02*
X0261206Y0122149D01*
X0261206Y0125348D02*
X0199968Y0125348D01*
X0197800Y0128546D02*
X0213101Y0128546D01*
X0212900Y0128747D02*
X0214247Y0127400D01*
X0223553Y0127400D01*
X0224900Y0128747D01*
X0224900Y0128915D01*
X0225501Y0128313D01*
X0227707Y0127400D01*
X0230093Y0127400D01*
X0232299Y0128313D01*
X0233900Y0129915D01*
X0235501Y0128313D01*
X0237707Y0127400D01*
X0240093Y0127400D01*
X0242299Y0128313D01*
X0243752Y0129767D01*
X0244095Y0129296D01*
X0244796Y0128595D01*
X0245598Y0128012D01*
X0246482Y0127562D01*
X0247425Y0127255D01*
X0248404Y0127100D01*
X0248900Y0127100D01*
X0249396Y0127100D01*
X0250375Y0127255D01*
X0251318Y0127562D01*
X0252202Y0128012D01*
X0253004Y0128595D01*
X0253705Y0129296D01*
X0254288Y0130098D01*
X0254738Y0130982D01*
X0255045Y0131925D01*
X0255200Y0132904D01*
X0255200Y0133400D01*
X0255200Y0133896D01*
X0255045Y0134875D01*
X0254738Y0135818D01*
X0254288Y0136702D01*
X0253705Y0137504D01*
X0253004Y0138205D01*
X0252202Y0138788D01*
X0251318Y0139238D01*
X0250375Y0139545D01*
X0249396Y0139700D01*
X0248900Y0139700D01*
X0248900Y0133400D01*
X0248900Y0133400D01*
X0255200Y0133400D01*
X0248900Y0133400D01*
X0248900Y0133400D01*
X0248900Y0139700D01*
X0248404Y0139700D01*
X0247425Y0139545D01*
X0246482Y0139238D01*
X0245598Y0138788D01*
X0244796Y0138205D01*
X0244095Y0137504D01*
X0243752Y0137033D01*
X0242299Y0138487D01*
X0240093Y0139400D01*
X0237707Y0139400D01*
X0235501Y0138487D01*
X0233900Y0136885D01*
X0232299Y0138487D01*
X0230093Y0139400D01*
X0227707Y0139400D01*
X0225501Y0138487D01*
X0224900Y0137885D01*
X0224900Y0138053D01*
X0223553Y0139400D01*
X0214247Y0139400D01*
X0212900Y0138053D01*
X0212900Y0128747D01*
X0212900Y0131745D02*
X0197800Y0131745D01*
X0197800Y0134943D02*
X0212900Y0134943D01*
X0212989Y0138142D02*
X0197957Y0138142D01*
X0197981Y0141340D02*
X0261206Y0141340D01*
X0261206Y0144539D02*
X0197800Y0144539D01*
X0197800Y0147737D02*
X0213910Y0147737D01*
X0214247Y0147400D02*
X0212900Y0148747D01*
X0212900Y0158053D01*
X0214247Y0159400D01*
X0223553Y0159400D01*
X0224900Y0158053D01*
X0224900Y0157885D01*
X0225501Y0158487D01*
X0227707Y0159400D01*
X0230093Y0159400D01*
X0232299Y0158487D01*
X0233900Y0156885D01*
X0235501Y0158487D01*
X0237707Y0159400D01*
X0240093Y0159400D01*
X0242299Y0158487D01*
X0243752Y0157033D01*
X0244095Y0157504D01*
X0244796Y0158205D01*
X0245598Y0158788D01*
X0246482Y0159238D01*
X0247425Y0159545D01*
X0248404Y0159700D01*
X0248900Y0159700D01*
X0248900Y0153400D01*
X0248900Y0153400D01*
X0255200Y0153400D01*
X0255200Y0153896D01*
X0255045Y0154875D01*
X0254738Y0155818D01*
X0254288Y0156702D01*
X0253705Y0157504D01*
X0253004Y0158205D01*
X0252202Y0158788D01*
X0251318Y0159238D01*
X0250375Y0159545D01*
X0249396Y0159700D01*
X0248900Y0159700D01*
X0248900Y0153400D01*
X0248900Y0153400D01*
X0255200Y0153400D01*
X0255200Y0152904D01*
X0255045Y0151925D01*
X0254738Y0150982D01*
X0254288Y0150098D01*
X0253705Y0149296D01*
X0253004Y0148595D01*
X0252202Y0148012D01*
X0251318Y0147562D01*
X0250375Y0147255D01*
X0249396Y0147100D01*
X0248900Y0147100D01*
X0248900Y0153400D01*
X0248900Y0153400D01*
X0248900Y0147100D01*
X0248404Y0147100D01*
X0247425Y0147255D01*
X0246482Y0147562D01*
X0245598Y0148012D01*
X0244796Y0148595D01*
X0244095Y0149296D01*
X0243752Y0149767D01*
X0242299Y0148313D01*
X0240093Y0147400D01*
X0237707Y0147400D01*
X0235501Y0148313D01*
X0233900Y0149915D01*
X0232299Y0148313D01*
X0230093Y0147400D01*
X0227707Y0147400D01*
X0225501Y0148313D01*
X0224900Y0148915D01*
X0224900Y0148747D01*
X0223553Y0147400D01*
X0214247Y0147400D01*
X0212900Y0150936D02*
X0197800Y0150936D01*
X0197800Y0154134D02*
X0212900Y0154134D01*
X0212900Y0157333D02*
X0197800Y0157333D01*
X0197981Y0160532D02*
X0261206Y0160532D01*
X0261206Y0163730D02*
X0197885Y0163730D01*
X0197800Y0166929D02*
X0261206Y0166929D01*
X0261206Y0170127D02*
X0254303Y0170127D01*
X0254288Y0170098D02*
X0254738Y0170982D01*
X0255045Y0171925D01*
X0255200Y0172904D01*
X0255200Y0173400D01*
X0255200Y0173896D01*
X0255045Y0174875D01*
X0254738Y0175818D01*
X0254288Y0176702D01*
X0253705Y0177504D01*
X0253004Y0178205D01*
X0252202Y0178788D01*
X0251318Y0179238D01*
X0250375Y0179545D01*
X0249396Y0179700D01*
X0248900Y0179700D01*
X0248900Y0173400D01*
X0248900Y0173400D01*
X0255200Y0173400D01*
X0248900Y0173400D01*
X0248900Y0173400D01*
X0248900Y0179700D01*
X0248404Y0179700D01*
X0247425Y0179545D01*
X0246482Y0179238D01*
X0245598Y0178788D01*
X0244796Y0178205D01*
X0244095Y0177504D01*
X0243752Y0177033D01*
X0242299Y0178487D01*
X0240093Y0179400D01*
X0237707Y0179400D01*
X0235501Y0178487D01*
X0233900Y0176885D01*
X0232299Y0178487D01*
X0230093Y0179400D01*
X0227707Y0179400D01*
X0225501Y0178487D01*
X0224900Y0177885D01*
X0224900Y0178053D01*
X0223553Y0179400D01*
X0214247Y0179400D01*
X0212900Y0178053D01*
X0212900Y0168747D01*
X0214247Y0167400D01*
X0223553Y0167400D01*
X0224900Y0168747D01*
X0224900Y0168915D01*
X0225501Y0168313D01*
X0227707Y0167400D01*
X0230093Y0167400D01*
X0232299Y0168313D01*
X0233900Y0169915D01*
X0235501Y0168313D01*
X0237707Y0167400D01*
X0240093Y0167400D01*
X0242299Y0168313D01*
X0243752Y0169767D01*
X0244095Y0169296D01*
X0244796Y0168595D01*
X0245598Y0168012D01*
X0246482Y0167562D01*
X0247425Y0167255D01*
X0248404Y0167100D01*
X0248900Y0167100D01*
X0249396Y0167100D01*
X0250375Y0167255D01*
X0251318Y0167562D01*
X0252202Y0168012D01*
X0253004Y0168595D01*
X0253705Y0169296D01*
X0254288Y0170098D01*
X0255200Y0173326D02*
X0261206Y0173326D01*
X0261206Y0176524D02*
X0254379Y0176524D01*
X0248900Y0176524D02*
X0248900Y0176524D01*
X0248900Y0173400D02*
X0248900Y0167100D01*
X0248900Y0173400D01*
X0248900Y0173400D01*
X0248900Y0173326D02*
X0248900Y0173326D01*
X0248900Y0170127D02*
X0248900Y0170127D01*
X0248900Y0157333D02*
X0248900Y0157333D01*
X0248900Y0154134D02*
X0248900Y0154134D01*
X0248900Y0150936D02*
X0248900Y0150936D01*
X0248900Y0147737D02*
X0248900Y0147737D01*
X0251664Y0147737D02*
X0261206Y0147737D01*
X0261206Y0150936D02*
X0254715Y0150936D01*
X0255162Y0154134D02*
X0261206Y0154134D01*
X0261206Y0157333D02*
X0253830Y0157333D01*
X0243970Y0157333D02*
X0243452Y0157333D01*
X0234348Y0157333D02*
X0233452Y0157333D01*
X0230908Y0147737D02*
X0236892Y0147737D01*
X0240908Y0147737D02*
X0246136Y0147737D01*
X0244732Y0138142D02*
X0242643Y0138142D01*
X0248900Y0138142D02*
X0248900Y0138142D01*
X0248900Y0134943D02*
X0248900Y0134943D01*
X0248900Y0133400D02*
X0248900Y0127100D01*
X0248900Y0133400D01*
X0248900Y0133400D01*
X0248900Y0131745D02*
X0248900Y0131745D01*
X0248900Y0128546D02*
X0248900Y0128546D01*
X0244862Y0128546D02*
X0242532Y0128546D01*
X0235268Y0128546D02*
X0232532Y0128546D01*
X0225268Y0128546D02*
X0224699Y0128546D01*
X0224811Y0138142D02*
X0225157Y0138142D01*
X0232643Y0138142D02*
X0235157Y0138142D01*
X0226892Y0147737D02*
X0223890Y0147737D01*
X0212900Y0170127D02*
X0197800Y0170127D01*
X0197800Y0173326D02*
X0212900Y0173326D01*
X0212900Y0176524D02*
X0197800Y0176524D01*
X0197981Y0179723D02*
X0261206Y0179723D01*
X0261206Y0182921D02*
X0197981Y0182921D01*
X0197800Y0186120D02*
X0261206Y0186120D01*
X0261206Y0189318D02*
X0253722Y0189318D01*
X0253705Y0189296D02*
X0254288Y0190098D01*
X0254738Y0190982D01*
X0255045Y0191925D01*
X0255200Y0192904D01*
X0255200Y0193400D01*
X0255200Y0193896D01*
X0255045Y0194875D01*
X0254738Y0195818D01*
X0254288Y0196702D01*
X0253705Y0197504D01*
X0253004Y0198205D01*
X0252202Y0198788D01*
X0251318Y0199238D01*
X0250375Y0199545D01*
X0249396Y0199700D01*
X0248900Y0199700D01*
X0248900Y0193400D01*
X0248900Y0193400D01*
X0255200Y0193400D01*
X0248900Y0193400D01*
X0248900Y0193400D01*
X0248900Y0199700D01*
X0248404Y0199700D01*
X0247425Y0199545D01*
X0246482Y0199238D01*
X0245598Y0198788D01*
X0244796Y0198205D01*
X0244095Y0197504D01*
X0243752Y0197033D01*
X0242299Y0198487D01*
X0240093Y0199400D01*
X0237707Y0199400D01*
X0237179Y0199181D01*
X0230274Y0206086D01*
X0229486Y0206874D01*
X0228457Y0207300D01*
X0224560Y0207300D01*
X0222567Y0209293D01*
X0223006Y0209293D01*
X0225138Y0210176D01*
X0226729Y0211767D01*
X0227200Y0211119D01*
X0227879Y0210440D01*
X0228656Y0209876D01*
X0229511Y0209440D01*
X0230424Y0209143D01*
X0231373Y0208993D01*
X0231853Y0208993D01*
X0232333Y0208993D01*
X0233281Y0209143D01*
X0234194Y0209440D01*
X0235050Y0209876D01*
X0235827Y0210440D01*
X0236506Y0211119D01*
X0237070Y0211896D01*
X0237506Y0212751D01*
X0237803Y0213664D01*
X0237953Y0214613D01*
X0237953Y0215093D01*
X0237953Y0215573D01*
X0237803Y0216521D01*
X0237506Y0217434D01*
X0237070Y0218290D01*
X0236506Y0219067D01*
X0235827Y0219746D01*
X0235179Y0220216D01*
X0236770Y0221807D01*
X0237653Y0223939D01*
X0237653Y0226247D01*
X0236770Y0228378D01*
X0235138Y0230010D01*
X0234504Y0230272D01*
X0252994Y0230272D01*
X0254066Y0230202D01*
X0256137Y0229647D01*
X0257993Y0228576D01*
X0259509Y0227060D01*
X0260580Y0225204D01*
X0261135Y0223133D01*
X0261206Y0222061D01*
X0261206Y0025211D01*
X0261135Y0024139D01*
X0260580Y0022069D01*
X0259509Y0020212D01*
X0257993Y0018697D01*
X0256137Y0017625D01*
X0254066Y0017070D01*
X0252994Y0017000D01*
X0020711Y0017000D01*
X0019639Y0017070D01*
X0017569Y0017625D01*
X0015712Y0018697D01*
X0014612Y0019797D02*
X0017315Y0019797D01*
X0017574Y0019538D02*
X0020887Y0018166D01*
X0024472Y0018166D01*
X0027785Y0019538D01*
X0030321Y0022074D01*
X0031693Y0025387D01*
X0031693Y0028972D01*
X0030321Y0032285D01*
X0027785Y0034821D01*
X0024472Y0036193D01*
X0020887Y0036193D01*
X0017574Y0034821D01*
X0015038Y0032285D01*
X0013666Y0028972D01*
X0013666Y0025387D01*
X0015038Y0022074D01*
X0017574Y0019538D01*
X0014657Y0022996D02*
X0012877Y0022996D01*
X0012500Y0026194D02*
X0013666Y0026194D01*
X0013840Y0029393D02*
X0012500Y0029393D01*
X0012500Y0032591D02*
X0015344Y0032591D01*
X0012500Y0035790D02*
X0019913Y0035790D01*
X0025446Y0035790D02*
X0178528Y0035790D01*
X0178528Y0032591D02*
X0030015Y0032591D01*
X0031519Y0029393D02*
X0041740Y0029393D01*
X0041747Y0029400D02*
X0040400Y0028053D01*
X0040400Y0018747D01*
X0041747Y0017400D01*
X0051053Y0017400D01*
X0052400Y0018747D01*
X0052400Y0018915D01*
X0053001Y0018313D01*
X0055207Y0017400D01*
X0057593Y0017400D01*
X0059799Y0018313D01*
X0061400Y0019915D01*
X0063001Y0018313D01*
X0065207Y0017400D01*
X0067593Y0017400D01*
X0069799Y0018313D01*
X0071400Y0019915D01*
X0073001Y0018313D01*
X0075207Y0017400D01*
X0077593Y0017400D01*
X0079799Y0018313D01*
X0081487Y0020001D01*
X0082400Y0022207D01*
X0082400Y0024593D01*
X0081487Y0026799D01*
X0079799Y0028487D01*
X0077593Y0029400D01*
X0075207Y0029400D01*
X0073001Y0028487D01*
X0071400Y0026885D01*
X0069799Y0028487D01*
X0067593Y0029400D01*
X0065207Y0029400D01*
X0063001Y0028487D01*
X0061400Y0026885D01*
X0059799Y0028487D01*
X0057593Y0029400D01*
X0055207Y0029400D01*
X0053001Y0028487D01*
X0052400Y0027885D01*
X0052400Y0028053D01*
X0051053Y0029400D01*
X0041747Y0029400D01*
X0040400Y0026194D02*
X0031693Y0026194D01*
X0030702Y0022996D02*
X0040400Y0022996D01*
X0040400Y0019797D02*
X0028044Y0019797D01*
X0012500Y0038988D02*
X0178528Y0038988D01*
X0178528Y0042187D02*
X0012500Y0042187D01*
X0013813Y0045001D02*
X0015501Y0043313D01*
X0017707Y0042400D01*
X0020093Y0042400D01*
X0022299Y0043313D01*
X0023900Y0044915D01*
X0025501Y0043313D01*
X0027707Y0042400D01*
X0030093Y0042400D01*
X0032299Y0043313D01*
X0033987Y0045001D01*
X0034900Y0047207D01*
X0034900Y0049593D01*
X0033987Y0051799D01*
X0032385Y0053400D01*
X0033987Y0055001D01*
X0034900Y0057207D01*
X0034900Y0059593D01*
X0033987Y0061799D01*
X0032299Y0063487D01*
X0030093Y0064400D01*
X0027707Y0064400D01*
X0025501Y0063487D01*
X0023900Y0061885D01*
X0022299Y0063487D01*
X0020093Y0064400D01*
X0017707Y0064400D01*
X0015501Y0063487D01*
X0013813Y0061799D01*
X0012900Y0059593D01*
X0012900Y0057207D01*
X0013813Y0055001D01*
X0015415Y0053400D01*
X0013813Y0051799D01*
X0012900Y0049593D01*
X0012900Y0047207D01*
X0013813Y0045001D01*
X0013654Y0045385D02*
X0012500Y0045385D01*
X0012500Y0048584D02*
X0012900Y0048584D01*
X0012500Y0051782D02*
X0013807Y0051782D01*
X0013834Y0054981D02*
X0012500Y0054981D01*
X0012500Y0058179D02*
X0012900Y0058179D01*
X0012500Y0061378D02*
X0013639Y0061378D01*
X0012500Y0064576D02*
X0178528Y0064576D01*
X0178528Y0061378D02*
X0034161Y0061378D01*
X0034900Y0058179D02*
X0178528Y0058179D01*
X0178528Y0054981D02*
X0033966Y0054981D01*
X0033993Y0051782D02*
X0178528Y0051782D01*
X0178528Y0048584D02*
X0034900Y0048584D01*
X0034146Y0045385D02*
X0178528Y0045385D01*
X0193602Y0045385D02*
X0202500Y0045385D01*
X0202500Y0048584D02*
X0193602Y0048584D01*
X0193602Y0051782D02*
X0202500Y0051782D01*
X0202500Y0054981D02*
X0193602Y0054981D01*
X0193602Y0058179D02*
X0202500Y0058179D01*
X0201701Y0042187D02*
X0193602Y0042187D01*
X0193602Y0038988D02*
X0200400Y0038988D01*
X0211099Y0042187D02*
X0211701Y0042187D01*
X0232700Y0038988D02*
X0261206Y0038988D01*
X0261206Y0035790D02*
X0253793Y0035790D01*
X0252819Y0036193D02*
X0249233Y0036193D01*
X0245920Y0034821D01*
X0243385Y0032285D01*
X0242013Y0028972D01*
X0242013Y0025387D01*
X0243385Y0022074D01*
X0245920Y0019538D01*
X0249233Y0018166D01*
X0252819Y0018166D01*
X0256132Y0019538D01*
X0258667Y0022074D01*
X0260039Y0025387D01*
X0260039Y0028972D01*
X0258667Y0032285D01*
X0256132Y0034821D01*
X0252819Y0036193D01*
X0248259Y0035790D02*
X0232700Y0035790D01*
X0231624Y0032591D02*
X0243691Y0032591D01*
X0242187Y0029393D02*
X0193602Y0029393D01*
X0193000Y0026194D02*
X0242013Y0026194D01*
X0243003Y0022996D02*
X0190572Y0022996D01*
X0190335Y0022758D02*
X0190335Y0022758D01*
X0192455Y0024879D02*
X0192455Y0024879D01*
X0181796Y0022758D02*
X0181796Y0022758D01*
X0181559Y0022996D02*
X0082400Y0022996D01*
X0081737Y0026194D02*
X0179131Y0026194D01*
X0178528Y0027649D02*
X0178528Y0027649D01*
X0178528Y0029393D02*
X0077611Y0029393D01*
X0075189Y0029393D02*
X0067611Y0029393D01*
X0065189Y0029393D02*
X0057611Y0029393D01*
X0055189Y0029393D02*
X0051060Y0029393D01*
X0061282Y0019797D02*
X0061518Y0019797D01*
X0071282Y0019797D02*
X0071518Y0019797D01*
X0081282Y0019797D02*
X0245662Y0019797D01*
X0256390Y0019797D02*
X0259093Y0019797D01*
X0259049Y0022996D02*
X0260829Y0022996D01*
X0261206Y0026194D02*
X0260039Y0026194D01*
X0259865Y0029393D02*
X0261206Y0029393D01*
X0261206Y0032591D02*
X0258361Y0032591D01*
X0261206Y0080569D02*
X0210300Y0080569D01*
X0210300Y0083767D02*
X0261206Y0083767D01*
X0261206Y0086966D02*
X0210300Y0086966D01*
X0210300Y0090164D02*
X0261206Y0090164D01*
X0261206Y0093363D02*
X0232333Y0093363D01*
X0232700Y0096561D02*
X0261206Y0096561D01*
X0261206Y0099760D02*
X0232700Y0099760D01*
X0232559Y0102958D02*
X0261206Y0102958D01*
X0261206Y0106157D02*
X0210300Y0106157D01*
X0210300Y0109355D02*
X0261206Y0109355D01*
X0261206Y0112554D02*
X0210300Y0112554D01*
X0209563Y0115752D02*
X0261206Y0115752D01*
X0261206Y0118951D02*
X0206365Y0118951D01*
X0210327Y0102958D02*
X0212473Y0102958D01*
X0212952Y0093363D02*
X0210300Y0093363D01*
X0219848Y0093363D02*
X0220466Y0093363D01*
X0226400Y0093363D02*
X0226400Y0093363D01*
X0226400Y0092100D02*
X0226400Y0098400D01*
X0226400Y0098400D01*
X0226400Y0092100D01*
X0226400Y0096561D02*
X0226400Y0096561D01*
X0226400Y0099760D02*
X0226400Y0099760D01*
X0226400Y0102958D02*
X0226400Y0102958D01*
X0252938Y0128546D02*
X0261206Y0128546D01*
X0261206Y0131745D02*
X0254986Y0131745D01*
X0255023Y0134943D02*
X0261206Y0134943D01*
X0261206Y0138142D02*
X0253068Y0138142D01*
X0249396Y0187100D02*
X0250375Y0187255D01*
X0251318Y0187562D01*
X0252202Y0188012D01*
X0253004Y0188595D01*
X0253705Y0189296D01*
X0255139Y0192517D02*
X0261206Y0192517D01*
X0261206Y0195715D02*
X0254772Y0195715D01*
X0251956Y0198914D02*
X0261206Y0198914D01*
X0261206Y0202112D02*
X0234248Y0202112D01*
X0231049Y0205311D02*
X0261206Y0205311D01*
X0261206Y0208509D02*
X0223351Y0208509D01*
X0226670Y0211708D02*
X0226772Y0211708D01*
X0231853Y0211708D02*
X0231853Y0211708D01*
X0231853Y0208993D02*
X0231853Y0215093D01*
X0237953Y0215093D01*
X0231853Y0215093D01*
X0231853Y0215093D01*
X0231853Y0215093D01*
X0231853Y0208993D01*
X0236933Y0211708D02*
X0247717Y0211708D01*
X0249233Y0211080D02*
X0252819Y0211080D01*
X0256132Y0212452D01*
X0258667Y0214987D01*
X0260039Y0218300D01*
X0260039Y0221886D01*
X0258667Y0225199D01*
X0256132Y0227734D01*
X0252819Y0229106D01*
X0249233Y0229106D01*
X0245920Y0227734D01*
X0243385Y0225199D01*
X0242013Y0221886D01*
X0242013Y0218300D01*
X0243385Y0214987D01*
X0245920Y0212452D01*
X0249233Y0211080D01*
X0254335Y0211708D02*
X0261206Y0211708D01*
X0261206Y0214906D02*
X0258586Y0214906D01*
X0259958Y0218105D02*
X0261206Y0218105D01*
X0261206Y0221303D02*
X0260039Y0221303D01*
X0260769Y0224502D02*
X0258956Y0224502D01*
X0258868Y0227700D02*
X0256165Y0227700D01*
X0245886Y0227700D02*
X0237051Y0227700D01*
X0237653Y0224502D02*
X0243096Y0224502D01*
X0242013Y0221303D02*
X0236266Y0221303D01*
X0237164Y0218105D02*
X0242093Y0218105D01*
X0243466Y0214906D02*
X0237953Y0214906D01*
X0231853Y0214906D02*
X0231853Y0214906D01*
X0222843Y0201700D02*
X0221814Y0202126D01*
X0215214Y0208726D01*
X0214426Y0209514D01*
X0214296Y0209827D01*
X0213006Y0209293D01*
X0210699Y0209293D01*
X0208567Y0210176D01*
X0206936Y0211807D01*
X0206853Y0212008D01*
X0206770Y0211807D01*
X0205138Y0210176D01*
X0203006Y0209293D01*
X0200699Y0209293D01*
X0198567Y0210176D01*
X0196936Y0211807D01*
X0196853Y0212008D01*
X0196770Y0211807D01*
X0195138Y0210176D01*
X0193006Y0209293D01*
X0190699Y0209293D01*
X0188567Y0210176D01*
X0186936Y0211807D01*
X0186853Y0212008D01*
X0186770Y0211807D01*
X0185138Y0210176D01*
X0183006Y0209293D01*
X0180699Y0209293D01*
X0178567Y0210176D01*
X0176936Y0211807D01*
X0176853Y0212008D01*
X0176770Y0211807D01*
X0175138Y0210176D01*
X0173006Y0209293D01*
X0170699Y0209293D01*
X0168567Y0210176D01*
X0166976Y0211767D01*
X0166506Y0211119D01*
X0165827Y0210440D01*
X0165050Y0209876D01*
X0164194Y0209440D01*
X0163281Y0209143D01*
X0162333Y0208993D01*
X0161853Y0208993D01*
X0161853Y0215093D01*
X0161853Y0215093D01*
X0161853Y0208993D01*
X0161373Y0208993D01*
X0160424Y0209143D01*
X0159511Y0209440D01*
X0158656Y0209876D01*
X0157879Y0210440D01*
X0157200Y0211119D01*
X0156729Y0211767D01*
X0155138Y0210176D01*
X0153006Y0209293D01*
X0150699Y0209293D01*
X0148567Y0210176D01*
X0146936Y0211807D01*
X0146853Y0212008D01*
X0146770Y0211807D01*
X0145138Y0210176D01*
X0143006Y0209293D01*
X0140699Y0209293D01*
X0138567Y0210176D01*
X0136936Y0211807D01*
X0136853Y0212008D01*
X0136770Y0211807D01*
X0135138Y0210176D01*
X0133006Y0209293D01*
X0130699Y0209293D01*
X0128567Y0210176D01*
X0126936Y0211807D01*
X0126853Y0212008D01*
X0126770Y0211807D01*
X0125138Y0210176D01*
X0123006Y0209293D01*
X0120699Y0209293D01*
X0118567Y0210176D01*
X0116936Y0211807D01*
X0116853Y0212008D01*
X0116770Y0211807D01*
X0115138Y0210176D01*
X0113006Y0209293D01*
X0110699Y0209293D01*
X0108567Y0210176D01*
X0106936Y0211807D01*
X0106853Y0212008D01*
X0106770Y0211807D01*
X0105138Y0210176D01*
X0103006Y0209293D01*
X0100699Y0209293D01*
X0098567Y0210176D01*
X0096936Y0211807D01*
X0096853Y0212008D01*
X0096770Y0211807D01*
X0095138Y0210176D01*
X0093006Y0209293D01*
X0090699Y0209293D01*
X0088567Y0210176D01*
X0086976Y0211767D01*
X0086506Y0211119D01*
X0085827Y0210440D01*
X0085050Y0209876D01*
X0084194Y0209440D01*
X0083281Y0209143D01*
X0082333Y0208993D01*
X0081853Y0208993D01*
X0081853Y0215093D01*
X0081853Y0209547D01*
X0084800Y0206600D01*
X0081853Y0208993D02*
X0081853Y0215093D01*
X0081853Y0215093D01*
X0081853Y0214906D02*
X0081853Y0214906D01*
X0081853Y0211708D02*
X0081853Y0211708D01*
X0081373Y0208993D02*
X0080424Y0209143D01*
X0079511Y0209440D01*
X0078656Y0209876D01*
X0077879Y0210440D01*
X0077200Y0211119D01*
X0076729Y0211767D01*
X0075138Y0210176D01*
X0074953Y0210099D01*
X0074953Y0189931D01*
X0088484Y0176400D01*
X0088648Y0176400D01*
X0088813Y0176799D01*
X0089281Y0177266D01*
X0088968Y0177396D01*
X0088543Y0177680D01*
X0088180Y0178043D01*
X0087896Y0178468D01*
X0087700Y0178942D01*
X0087600Y0179444D01*
X0087600Y0183400D01*
X0093900Y0183400D01*
X0093900Y0183400D01*
X0093900Y0189700D01*
X0097856Y0189700D01*
X0098358Y0189600D01*
X0098832Y0189404D01*
X0099257Y0189120D01*
X0099620Y0188757D01*
X0099904Y0188332D01*
X0100100Y0187858D01*
X0100200Y0187356D01*
X0100200Y0183400D01*
X0093900Y0183400D01*
X0093900Y0183400D01*
X0093900Y0183400D01*
X0093900Y0189700D01*
X0089944Y0189700D01*
X0089442Y0189600D01*
X0088968Y0189404D01*
X0088543Y0189120D01*
X0088180Y0188757D01*
X0087896Y0188332D01*
X0087700Y0187858D01*
X0087600Y0187356D01*
X0087600Y0183400D01*
X0093900Y0183400D01*
X0100200Y0183400D01*
X0100200Y0179444D01*
X0100100Y0178942D01*
X0099904Y0178468D01*
X0099620Y0178043D01*
X0099257Y0177680D01*
X0098832Y0177396D01*
X0098519Y0177266D01*
X0098987Y0176799D01*
X0099110Y0176500D01*
X0118690Y0176500D01*
X0118813Y0176799D01*
X0119281Y0177266D01*
X0118968Y0177396D01*
X0118543Y0177680D01*
X0118180Y0178043D01*
X0117896Y0178468D01*
X0117700Y0178942D01*
X0117600Y0179444D01*
X0117600Y0183400D01*
X0123900Y0183400D01*
X0123900Y0186120D02*
X0123900Y0186120D01*
X0123900Y0189318D02*
X0123900Y0189318D01*
X0128960Y0189318D02*
X0148840Y0189318D01*
X0147600Y0186120D02*
X0130200Y0186120D01*
X0130200Y0182921D02*
X0147600Y0182921D01*
X0147600Y0179723D02*
X0130200Y0179723D01*
X0129100Y0176524D02*
X0148700Y0176524D01*
X0148761Y0170127D02*
X0129039Y0170127D01*
X0128857Y0166929D02*
X0148943Y0166929D01*
X0147900Y0163730D02*
X0129900Y0163730D01*
X0129206Y0160532D02*
X0148594Y0160532D01*
X0159206Y0160532D02*
X0189819Y0160532D01*
X0189915Y0163730D02*
X0159900Y0163730D01*
X0158857Y0166929D02*
X0190000Y0166929D01*
X0190000Y0170127D02*
X0159039Y0170127D01*
X0159900Y0173326D02*
X0190000Y0173326D01*
X0190000Y0176524D02*
X0159100Y0176524D01*
X0160200Y0179723D02*
X0189819Y0179723D01*
X0193900Y0180900D02*
X0193900Y0195900D01*
X0196658Y0198914D02*
X0213761Y0198914D01*
X0214247Y0199400D02*
X0212900Y0198053D01*
X0212900Y0188747D01*
X0214247Y0187400D01*
X0223553Y0187400D01*
X0224900Y0188747D01*
X0224900Y0188915D01*
X0225501Y0188313D01*
X0227707Y0187400D01*
X0230093Y0187400D01*
X0232299Y0188313D01*
X0233900Y0189915D01*
X0235501Y0188313D01*
X0237707Y0187400D01*
X0240093Y0187400D01*
X0242299Y0188313D01*
X0243752Y0189767D01*
X0244095Y0189296D01*
X0244796Y0188595D01*
X0245598Y0188012D01*
X0246482Y0187562D01*
X0247425Y0187255D01*
X0248404Y0187100D01*
X0248900Y0187100D01*
X0249396Y0187100D01*
X0248900Y0187100D02*
X0248900Y0193400D01*
X0248900Y0193400D01*
X0248900Y0187100D01*
X0248900Y0189318D02*
X0248900Y0189318D01*
X0248900Y0192517D02*
X0248900Y0192517D01*
X0248900Y0195715D02*
X0248900Y0195715D01*
X0248900Y0198914D02*
X0248900Y0198914D01*
X0245844Y0198914D02*
X0241268Y0198914D01*
X0243303Y0189318D02*
X0244078Y0189318D01*
X0234497Y0189318D02*
X0233303Y0189318D01*
X0227707Y0199400D02*
X0225501Y0198487D01*
X0224900Y0197885D01*
X0224900Y0198053D01*
X0223553Y0199400D01*
X0214247Y0199400D01*
X0212900Y0195715D02*
X0197981Y0195715D01*
X0197800Y0192517D02*
X0212900Y0192517D01*
X0212900Y0189318D02*
X0197800Y0189318D01*
X0190000Y0192517D02*
X0074953Y0192517D01*
X0074953Y0195715D02*
X0189819Y0195715D01*
X0191142Y0198914D02*
X0074953Y0198914D01*
X0074953Y0202112D02*
X0221848Y0202112D01*
X0222843Y0201700D02*
X0226740Y0201700D01*
X0229040Y0199400D01*
X0227707Y0199400D01*
X0226532Y0198914D02*
X0224039Y0198914D01*
X0218630Y0205311D02*
X0074953Y0205311D01*
X0074953Y0208509D02*
X0215431Y0208509D01*
X0207036Y0211708D02*
X0206670Y0211708D01*
X0197036Y0211708D02*
X0196670Y0211708D01*
X0187036Y0211708D02*
X0186670Y0211708D01*
X0177036Y0211708D02*
X0176670Y0211708D01*
X0167036Y0211708D02*
X0166933Y0211708D01*
X0161853Y0211708D02*
X0161853Y0211708D01*
X0161853Y0214906D02*
X0161853Y0214906D01*
X0156772Y0211708D02*
X0156670Y0211708D01*
X0147036Y0211708D02*
X0146670Y0211708D01*
X0137036Y0211708D02*
X0136670Y0211708D01*
X0127036Y0211708D02*
X0126670Y0211708D01*
X0117036Y0211708D02*
X0116670Y0211708D01*
X0107036Y0211708D02*
X0106670Y0211708D01*
X0097036Y0211708D02*
X0096670Y0211708D01*
X0087036Y0211708D02*
X0086933Y0211708D01*
X0081853Y0208993D02*
X0081373Y0208993D01*
X0076772Y0211708D02*
X0076670Y0211708D01*
X0068753Y0208509D02*
X0012500Y0208509D01*
X0012500Y0205311D02*
X0068753Y0205311D01*
X0068753Y0202112D02*
X0028000Y0202112D01*
X0028000Y0202656D02*
X0027900Y0203158D01*
X0027704Y0203632D01*
X0027420Y0204057D01*
X0027057Y0204420D01*
X0026632Y0204704D01*
X0026158Y0204900D01*
X0025656Y0205000D01*
X0021400Y0205000D01*
X0021400Y0198400D01*
X0021400Y0198400D01*
X0028000Y0198400D01*
X0028000Y0202656D01*
X0028000Y0198914D02*
X0068753Y0198914D01*
X0068753Y0195715D02*
X0028000Y0195715D01*
X0028000Y0194144D02*
X0028000Y0198400D01*
X0021400Y0198400D01*
X0021400Y0198400D01*
X0021400Y0191800D01*
X0025656Y0191800D01*
X0026158Y0191900D01*
X0026632Y0192096D01*
X0027057Y0192380D01*
X0027420Y0192743D01*
X0027704Y0193168D01*
X0027900Y0193642D01*
X0028000Y0194144D01*
X0027194Y0192517D02*
X0068753Y0192517D01*
X0068753Y0189318D02*
X0025612Y0189318D01*
X0024969Y0189961D02*
X0026741Y0188189D01*
X0027700Y0185874D01*
X0027700Y0183367D01*
X0026741Y0181052D01*
X0024969Y0179280D01*
X0022653Y0178320D01*
X0020147Y0178320D01*
X0017831Y0179280D01*
X0016059Y0181052D01*
X0015100Y0183367D01*
X0015100Y0185874D01*
X0016059Y0188189D01*
X0017831Y0189961D01*
X0020147Y0190920D01*
X0022653Y0190920D01*
X0024969Y0189961D01*
X0021400Y0191800D02*
X0021400Y0198400D01*
X0021400Y0198400D01*
X0021400Y0198400D01*
X0014800Y0198400D01*
X0014800Y0202656D01*
X0014900Y0203158D01*
X0015096Y0203632D01*
X0015380Y0204057D01*
X0015743Y0204420D01*
X0016168Y0204704D01*
X0016642Y0204900D01*
X0017144Y0205000D01*
X0021400Y0205000D01*
X0021400Y0198400D01*
X0014800Y0198400D01*
X0014800Y0194144D01*
X0014900Y0193642D01*
X0015096Y0193168D01*
X0015380Y0192743D01*
X0015743Y0192380D01*
X0016168Y0192096D01*
X0016642Y0191900D01*
X0017144Y0191800D01*
X0021400Y0191800D01*
X0021400Y0192517D02*
X0021400Y0192517D01*
X0021400Y0195715D02*
X0021400Y0195715D01*
X0021400Y0198914D02*
X0021400Y0198914D01*
X0021400Y0202112D02*
X0021400Y0202112D01*
X0014800Y0202112D02*
X0012500Y0202112D01*
X0012500Y0198914D02*
X0014800Y0198914D01*
X0014800Y0195715D02*
X0012500Y0195715D01*
X0012500Y0192517D02*
X0015606Y0192517D01*
X0017188Y0189318D02*
X0012500Y0189318D01*
X0012500Y0186120D02*
X0015202Y0186120D01*
X0015285Y0182921D02*
X0012500Y0182921D01*
X0012500Y0179723D02*
X0017388Y0179723D01*
X0012500Y0176524D02*
X0079592Y0176524D01*
X0076393Y0179723D02*
X0025412Y0179723D01*
X0027515Y0182921D02*
X0073195Y0182921D01*
X0070097Y0186019D02*
X0070097Y0186019D01*
X0069996Y0186120D02*
X0027598Y0186120D01*
X0043900Y0175900D02*
X0051400Y0183400D01*
X0033987Y0166799D02*
X0032299Y0168487D01*
X0030093Y0169400D01*
X0027707Y0169400D01*
X0025501Y0168487D01*
X0023900Y0166885D01*
X0022299Y0168487D01*
X0020093Y0169400D01*
X0017707Y0169400D01*
X0015501Y0168487D01*
X0013813Y0166799D01*
X0012900Y0164593D01*
X0012900Y0162207D01*
X0013813Y0160001D01*
X0015415Y0158400D01*
X0013813Y0156799D01*
X0012900Y0154593D01*
X0012900Y0152207D01*
X0013813Y0150001D01*
X0015501Y0148313D01*
X0017707Y0147400D01*
X0020093Y0147400D01*
X0022299Y0148313D01*
X0023900Y0149915D01*
X0025501Y0148313D01*
X0027707Y0147400D01*
X0030093Y0147400D01*
X0032299Y0148313D01*
X0033987Y0150001D01*
X0034900Y0152207D01*
X0034900Y0154593D01*
X0033987Y0156799D01*
X0032385Y0158400D01*
X0033987Y0160001D01*
X0034900Y0162207D01*
X0034900Y0164593D01*
X0033987Y0166799D01*
X0033857Y0166929D02*
X0088943Y0166929D01*
X0088761Y0170127D02*
X0012500Y0170127D01*
X0012500Y0166929D02*
X0013943Y0166929D01*
X0012900Y0163730D02*
X0012500Y0163730D01*
X0012500Y0160532D02*
X0013594Y0160532D01*
X0014348Y0157333D02*
X0012500Y0157333D01*
X0012500Y0154134D02*
X0012900Y0154134D01*
X0012500Y0150936D02*
X0013426Y0150936D01*
X0012500Y0147737D02*
X0016892Y0147737D01*
X0020908Y0147737D02*
X0026892Y0147737D01*
X0030908Y0147737D02*
X0190000Y0147737D01*
X0190000Y0144539D02*
X0012500Y0144539D01*
X0012500Y0141340D02*
X0189819Y0141340D01*
X0189843Y0138142D02*
X0012500Y0138142D01*
X0034374Y0150936D02*
X0190000Y0150936D01*
X0190000Y0154134D02*
X0034900Y0154134D01*
X0033452Y0157333D02*
X0190000Y0157333D01*
X0118594Y0160532D02*
X0099206Y0160532D01*
X0099900Y0163730D02*
X0117900Y0163730D01*
X0118943Y0166929D02*
X0098857Y0166929D01*
X0099039Y0170127D02*
X0118761Y0170127D01*
X0118700Y0176524D02*
X0099100Y0176524D01*
X0100200Y0179723D02*
X0117600Y0179723D01*
X0117600Y0182921D02*
X0100200Y0182921D01*
X0100200Y0186120D02*
X0117600Y0186120D01*
X0118840Y0189318D02*
X0098960Y0189318D01*
X0093900Y0189318D02*
X0093900Y0189318D01*
X0093900Y0186120D02*
X0093900Y0186120D01*
X0088840Y0189318D02*
X0075566Y0189318D01*
X0078764Y0186120D02*
X0087600Y0186120D01*
X0087600Y0182921D02*
X0081963Y0182921D01*
X0085161Y0179723D02*
X0087600Y0179723D01*
X0088360Y0176524D02*
X0088700Y0176524D01*
X0084572Y0171544D02*
X0084572Y0171544D01*
X0082790Y0173326D02*
X0012500Y0173326D01*
X0023857Y0166929D02*
X0023943Y0166929D01*
X0034900Y0163730D02*
X0087900Y0163730D01*
X0088594Y0160532D02*
X0034206Y0160532D01*
X0024472Y0211080D02*
X0020887Y0211080D01*
X0017574Y0212452D01*
X0015038Y0214987D01*
X0013666Y0218300D01*
X0013666Y0221886D01*
X0015038Y0225199D01*
X0017574Y0227734D01*
X0020887Y0229106D01*
X0024472Y0229106D01*
X0027785Y0227734D01*
X0030321Y0225199D01*
X0031693Y0221886D01*
X0031693Y0218300D01*
X0030321Y0214987D01*
X0027785Y0212452D01*
X0024472Y0211080D01*
X0025989Y0211708D02*
X0036053Y0211708D01*
X0036053Y0214906D02*
X0030240Y0214906D01*
X0031612Y0218105D02*
X0036053Y0218105D01*
X0037440Y0221303D02*
X0031693Y0221303D01*
X0030609Y0224502D02*
X0036053Y0224502D01*
X0036655Y0227700D02*
X0027819Y0227700D01*
X0017540Y0227700D02*
X0014837Y0227700D01*
X0014750Y0224502D02*
X0012937Y0224502D01*
X0012500Y0221303D02*
X0013666Y0221303D01*
X0013747Y0218105D02*
X0012500Y0218105D01*
X0012500Y0214906D02*
X0015119Y0214906D01*
X0012500Y0211708D02*
X0019370Y0211708D01*
X0056670Y0211708D02*
X0057036Y0211708D01*
X0066670Y0211708D02*
X0067036Y0211708D01*
X0013715Y0096561D02*
X0012500Y0096561D01*
X0012500Y0093363D02*
X0012900Y0093363D01*
X0012500Y0090164D02*
X0013746Y0090164D01*
X0013980Y0086966D02*
X0012500Y0086966D01*
X0012500Y0083767D02*
X0012900Y0083767D01*
X0012500Y0080569D02*
X0013578Y0080569D01*
X0012500Y0077370D02*
X0178528Y0077370D01*
X0178528Y0074172D02*
X0012500Y0074172D01*
X0012500Y0070973D02*
X0178528Y0070973D01*
X0178528Y0067775D02*
X0012500Y0067775D01*
D21*
X0066400Y0125900D02*
X0066400Y0135900D01*
X0061400Y0140900D01*
X0064900Y0137600D01*
D22*
X0193900Y0195900D03*
D23*
X0153900Y0173400D02*
X0123900Y0173400D01*
X0093900Y0173400D01*
X0093800Y0173300D01*
X0087200Y0173300D01*
X0071853Y0188647D01*
X0071853Y0215093D01*
M02*
