G75*
%MOIN*%
%OFA0B0*%
%FSLAX25Y25*%
%IPPOS*%
%LPD*%
%AMOC8*
5,1,8,0,0,1.08239X$1,22.5*
%
%ADD10R,0.03937X0.04331*%
%ADD11R,0.07400X0.07400*%
%ADD12C,0.07400*%
%ADD13R,0.02600X0.08000*%
%ADD14R,0.05512X0.03937*%
%ADD15R,0.04331X0.03937*%
%ADD16R,0.05000X0.02500*%
%ADD17C,0.00000*%
%ADD18R,0.07000X0.07000*%
%ADD19C,0.07000*%
%ADD20R,0.08000X0.08000*%
%ADD21C,0.08000*%
%ADD22R,0.02500X0.05000*%
%ADD23C,0.01200*%
%ADD24C,0.01000*%
%ADD25C,0.02400*%
%ADD26C,0.03200*%
%ADD27R,0.03562X0.03562*%
%ADD28C,0.05000*%
%ADD29C,0.04000*%
%ADD30C,0.01600*%
%ADD31C,0.03562*%
D10*
X0038900Y0045054D03*
X0038900Y0051746D03*
X0056400Y0060054D03*
X0056400Y0066746D03*
X0038900Y0077554D03*
X0038900Y0084246D03*
X0056400Y0092554D03*
X0056400Y0099246D03*
X0038900Y0112554D03*
X0038900Y0119246D03*
X0056400Y0127554D03*
X0056400Y0134246D03*
X0073900Y0131746D03*
X0073900Y0125054D03*
X0038900Y0147554D03*
X0038900Y0154246D03*
X0056400Y0162554D03*
X0056400Y0169246D03*
X0122700Y0132146D03*
X0122700Y0125454D03*
X0171500Y0184954D03*
X0171500Y0191646D03*
D11*
X0153900Y0183400D03*
X0123900Y0183400D03*
X0093900Y0183400D03*
X0218900Y0173400D03*
X0218900Y0153400D03*
X0218900Y0133400D03*
X0226400Y0098400D03*
X0226400Y0068400D03*
X0226400Y0038400D03*
X0218900Y0193400D03*
X0046400Y0023400D03*
D12*
X0056400Y0023400D03*
X0066400Y0023400D03*
X0076400Y0023400D03*
X0028900Y0048400D03*
X0018900Y0048400D03*
X0018900Y0058400D03*
X0028900Y0058400D03*
X0028900Y0083400D03*
X0028900Y0093400D03*
X0018900Y0093400D03*
X0018900Y0083400D03*
X0018900Y0118400D03*
X0018900Y0128400D03*
X0028900Y0128400D03*
X0028900Y0118400D03*
X0028900Y0153400D03*
X0028900Y0163400D03*
X0018900Y0163400D03*
X0018900Y0153400D03*
X0093900Y0163400D03*
X0093900Y0173400D03*
X0123900Y0173400D03*
X0123900Y0163400D03*
X0153900Y0163400D03*
X0153900Y0173400D03*
X0228900Y0173400D03*
X0238900Y0173400D03*
X0248900Y0173400D03*
X0248900Y0153400D03*
X0238900Y0153400D03*
X0228900Y0153400D03*
X0228900Y0133400D03*
X0238900Y0133400D03*
X0248900Y0133400D03*
X0216400Y0098400D03*
X0206400Y0098400D03*
X0206400Y0068400D03*
X0216400Y0068400D03*
X0216400Y0038400D03*
X0206400Y0038400D03*
X0228900Y0193400D03*
X0238900Y0193400D03*
X0248900Y0193400D03*
D13*
X0116400Y0130500D03*
X0111400Y0130500D03*
X0106400Y0130500D03*
X0101400Y0130500D03*
X0096400Y0130500D03*
X0091400Y0130500D03*
X0086400Y0130500D03*
X0081400Y0130500D03*
X0081400Y0106300D03*
X0086400Y0106300D03*
X0091400Y0106300D03*
X0096400Y0106300D03*
X0101400Y0106300D03*
X0106400Y0106300D03*
X0111400Y0106300D03*
X0116400Y0106300D03*
D14*
X0048231Y0099640D03*
X0048231Y0092160D03*
X0039569Y0095900D03*
X0048231Y0067140D03*
X0048231Y0059660D03*
X0039569Y0063400D03*
X0048231Y0127160D03*
X0048231Y0134640D03*
X0039569Y0130900D03*
X0048231Y0162160D03*
X0048231Y0169640D03*
X0039569Y0165900D03*
D15*
X0050554Y0150900D03*
X0057246Y0150900D03*
X0057246Y0115900D03*
X0050554Y0115900D03*
X0050554Y0080900D03*
X0057246Y0080900D03*
X0057246Y0048400D03*
X0050554Y0048400D03*
X0205554Y0050900D03*
X0212246Y0050900D03*
X0212246Y0080900D03*
X0205554Y0080900D03*
X0205554Y0110900D03*
X0212246Y0110900D03*
D16*
X0203900Y0129900D03*
X0203900Y0133400D03*
X0203900Y0136900D03*
X0203900Y0149900D03*
X0203900Y0153400D03*
X0203900Y0156900D03*
X0203900Y0169900D03*
X0203900Y0173400D03*
X0203900Y0176900D03*
X0203900Y0189900D03*
X0203900Y0193400D03*
X0203900Y0196900D03*
D17*
X0252994Y0013400D02*
X0020711Y0013400D01*
X0020426Y0013403D01*
X0020140Y0013414D01*
X0019855Y0013431D01*
X0019571Y0013455D01*
X0019287Y0013486D01*
X0019004Y0013524D01*
X0018723Y0013569D01*
X0018442Y0013620D01*
X0018162Y0013678D01*
X0017884Y0013743D01*
X0017608Y0013815D01*
X0017334Y0013893D01*
X0017061Y0013978D01*
X0016791Y0014070D01*
X0016523Y0014168D01*
X0016257Y0014272D01*
X0015994Y0014383D01*
X0015734Y0014500D01*
X0015476Y0014623D01*
X0015222Y0014753D01*
X0014971Y0014889D01*
X0014723Y0015030D01*
X0014479Y0015178D01*
X0014238Y0015331D01*
X0014002Y0015491D01*
X0013769Y0015656D01*
X0013540Y0015826D01*
X0013315Y0016002D01*
X0013095Y0016184D01*
X0012879Y0016370D01*
X0012668Y0016562D01*
X0012461Y0016759D01*
X0012259Y0016961D01*
X0012062Y0017168D01*
X0011870Y0017379D01*
X0011684Y0017595D01*
X0011502Y0017815D01*
X0011326Y0018040D01*
X0011156Y0018269D01*
X0010991Y0018502D01*
X0010831Y0018738D01*
X0010678Y0018979D01*
X0010530Y0019223D01*
X0010389Y0019471D01*
X0010253Y0019722D01*
X0010123Y0019976D01*
X0010000Y0020234D01*
X0009883Y0020494D01*
X0009772Y0020757D01*
X0009668Y0021023D01*
X0009570Y0021291D01*
X0009478Y0021561D01*
X0009393Y0021834D01*
X0009315Y0022108D01*
X0009243Y0022384D01*
X0009178Y0022662D01*
X0009120Y0022942D01*
X0009069Y0023223D01*
X0009024Y0023504D01*
X0008986Y0023787D01*
X0008955Y0024071D01*
X0008931Y0024355D01*
X0008914Y0024640D01*
X0008903Y0024926D01*
X0008900Y0025211D01*
X0008900Y0164975D01*
X0008900Y0167298D01*
X0008900Y0222061D01*
X0008903Y0222346D01*
X0008914Y0222632D01*
X0008931Y0222917D01*
X0008955Y0223201D01*
X0008986Y0223485D01*
X0009024Y0223768D01*
X0009069Y0224049D01*
X0009120Y0224330D01*
X0009178Y0224610D01*
X0009243Y0224888D01*
X0009315Y0225164D01*
X0009393Y0225438D01*
X0009478Y0225711D01*
X0009570Y0225981D01*
X0009668Y0226249D01*
X0009772Y0226515D01*
X0009883Y0226778D01*
X0010000Y0227038D01*
X0010123Y0227296D01*
X0010253Y0227550D01*
X0010389Y0227801D01*
X0010530Y0228049D01*
X0010678Y0228293D01*
X0010831Y0228534D01*
X0010991Y0228770D01*
X0011156Y0229003D01*
X0011326Y0229232D01*
X0011502Y0229457D01*
X0011684Y0229677D01*
X0011870Y0229893D01*
X0012062Y0230104D01*
X0012259Y0230311D01*
X0012461Y0230513D01*
X0012668Y0230710D01*
X0012879Y0230902D01*
X0013095Y0231088D01*
X0013315Y0231270D01*
X0013540Y0231446D01*
X0013769Y0231616D01*
X0014002Y0231781D01*
X0014238Y0231941D01*
X0014479Y0232094D01*
X0014723Y0232242D01*
X0014971Y0232383D01*
X0015222Y0232519D01*
X0015476Y0232649D01*
X0015734Y0232772D01*
X0015994Y0232889D01*
X0016257Y0233000D01*
X0016523Y0233104D01*
X0016791Y0233202D01*
X0017061Y0233294D01*
X0017334Y0233379D01*
X0017608Y0233457D01*
X0017884Y0233529D01*
X0018162Y0233594D01*
X0018442Y0233652D01*
X0018723Y0233703D01*
X0019004Y0233748D01*
X0019287Y0233786D01*
X0019571Y0233817D01*
X0019855Y0233841D01*
X0020140Y0233858D01*
X0020426Y0233869D01*
X0020711Y0233872D01*
X0252994Y0233872D01*
X0253279Y0233869D01*
X0253565Y0233858D01*
X0253850Y0233841D01*
X0254134Y0233817D01*
X0254418Y0233786D01*
X0254701Y0233748D01*
X0254982Y0233703D01*
X0255263Y0233652D01*
X0255543Y0233594D01*
X0255821Y0233529D01*
X0256097Y0233457D01*
X0256371Y0233379D01*
X0256644Y0233294D01*
X0256914Y0233202D01*
X0257182Y0233104D01*
X0257448Y0233000D01*
X0257711Y0232889D01*
X0257971Y0232772D01*
X0258229Y0232649D01*
X0258483Y0232519D01*
X0258734Y0232383D01*
X0258982Y0232242D01*
X0259226Y0232094D01*
X0259467Y0231941D01*
X0259703Y0231781D01*
X0259936Y0231616D01*
X0260165Y0231446D01*
X0260390Y0231270D01*
X0260610Y0231088D01*
X0260826Y0230902D01*
X0261037Y0230710D01*
X0261244Y0230513D01*
X0261446Y0230311D01*
X0261643Y0230104D01*
X0261835Y0229893D01*
X0262021Y0229677D01*
X0262203Y0229457D01*
X0262379Y0229232D01*
X0262549Y0229003D01*
X0262714Y0228770D01*
X0262874Y0228534D01*
X0263027Y0228293D01*
X0263175Y0228049D01*
X0263316Y0227801D01*
X0263452Y0227550D01*
X0263582Y0227296D01*
X0263705Y0227038D01*
X0263822Y0226778D01*
X0263933Y0226515D01*
X0264037Y0226249D01*
X0264135Y0225981D01*
X0264227Y0225711D01*
X0264312Y0225438D01*
X0264390Y0225164D01*
X0264462Y0224888D01*
X0264527Y0224610D01*
X0264585Y0224330D01*
X0264636Y0224049D01*
X0264681Y0223768D01*
X0264719Y0223485D01*
X0264750Y0223201D01*
X0264774Y0222917D01*
X0264791Y0222632D01*
X0264802Y0222346D01*
X0264805Y0222061D01*
X0264806Y0222061D02*
X0264806Y0025211D01*
X0264805Y0025211D02*
X0264802Y0024926D01*
X0264791Y0024640D01*
X0264774Y0024355D01*
X0264750Y0024071D01*
X0264719Y0023787D01*
X0264681Y0023504D01*
X0264636Y0023223D01*
X0264585Y0022942D01*
X0264527Y0022662D01*
X0264462Y0022384D01*
X0264390Y0022108D01*
X0264312Y0021834D01*
X0264227Y0021561D01*
X0264135Y0021291D01*
X0264037Y0021023D01*
X0263933Y0020757D01*
X0263822Y0020494D01*
X0263705Y0020234D01*
X0263582Y0019976D01*
X0263452Y0019722D01*
X0263316Y0019471D01*
X0263175Y0019223D01*
X0263027Y0018979D01*
X0262874Y0018738D01*
X0262714Y0018502D01*
X0262549Y0018269D01*
X0262379Y0018040D01*
X0262203Y0017815D01*
X0262021Y0017595D01*
X0261835Y0017379D01*
X0261643Y0017168D01*
X0261446Y0016961D01*
X0261244Y0016759D01*
X0261037Y0016562D01*
X0260826Y0016370D01*
X0260610Y0016184D01*
X0260390Y0016002D01*
X0260165Y0015826D01*
X0259936Y0015656D01*
X0259703Y0015491D01*
X0259467Y0015331D01*
X0259226Y0015178D01*
X0258982Y0015030D01*
X0258734Y0014889D01*
X0258483Y0014753D01*
X0258229Y0014623D01*
X0257971Y0014500D01*
X0257711Y0014383D01*
X0257448Y0014272D01*
X0257182Y0014168D01*
X0256914Y0014070D01*
X0256644Y0013978D01*
X0256371Y0013893D01*
X0256097Y0013815D01*
X0255821Y0013743D01*
X0255543Y0013678D01*
X0255263Y0013620D01*
X0254982Y0013569D01*
X0254701Y0013524D01*
X0254418Y0013486D01*
X0254134Y0013455D01*
X0253850Y0013431D01*
X0253565Y0013414D01*
X0253279Y0013403D01*
X0252994Y0013400D01*
X0245613Y0027180D02*
X0245615Y0027327D01*
X0245621Y0027473D01*
X0245631Y0027619D01*
X0245645Y0027765D01*
X0245663Y0027911D01*
X0245684Y0028056D01*
X0245710Y0028200D01*
X0245740Y0028344D01*
X0245773Y0028486D01*
X0245810Y0028628D01*
X0245851Y0028769D01*
X0245896Y0028908D01*
X0245945Y0029047D01*
X0245997Y0029184D01*
X0246054Y0029319D01*
X0246113Y0029453D01*
X0246177Y0029585D01*
X0246244Y0029715D01*
X0246314Y0029844D01*
X0246388Y0029971D01*
X0246465Y0030095D01*
X0246546Y0030218D01*
X0246630Y0030338D01*
X0246717Y0030456D01*
X0246807Y0030571D01*
X0246900Y0030684D01*
X0246997Y0030795D01*
X0247096Y0030903D01*
X0247198Y0031008D01*
X0247303Y0031110D01*
X0247411Y0031209D01*
X0247522Y0031306D01*
X0247635Y0031399D01*
X0247750Y0031489D01*
X0247868Y0031576D01*
X0247988Y0031660D01*
X0248111Y0031741D01*
X0248235Y0031818D01*
X0248362Y0031892D01*
X0248491Y0031962D01*
X0248621Y0032029D01*
X0248753Y0032093D01*
X0248887Y0032152D01*
X0249022Y0032209D01*
X0249159Y0032261D01*
X0249298Y0032310D01*
X0249437Y0032355D01*
X0249578Y0032396D01*
X0249720Y0032433D01*
X0249862Y0032466D01*
X0250006Y0032496D01*
X0250150Y0032522D01*
X0250295Y0032543D01*
X0250441Y0032561D01*
X0250587Y0032575D01*
X0250733Y0032585D01*
X0250879Y0032591D01*
X0251026Y0032593D01*
X0251173Y0032591D01*
X0251319Y0032585D01*
X0251465Y0032575D01*
X0251611Y0032561D01*
X0251757Y0032543D01*
X0251902Y0032522D01*
X0252046Y0032496D01*
X0252190Y0032466D01*
X0252332Y0032433D01*
X0252474Y0032396D01*
X0252615Y0032355D01*
X0252754Y0032310D01*
X0252893Y0032261D01*
X0253030Y0032209D01*
X0253165Y0032152D01*
X0253299Y0032093D01*
X0253431Y0032029D01*
X0253561Y0031962D01*
X0253690Y0031892D01*
X0253817Y0031818D01*
X0253941Y0031741D01*
X0254064Y0031660D01*
X0254184Y0031576D01*
X0254302Y0031489D01*
X0254417Y0031399D01*
X0254530Y0031306D01*
X0254641Y0031209D01*
X0254749Y0031110D01*
X0254854Y0031008D01*
X0254956Y0030903D01*
X0255055Y0030795D01*
X0255152Y0030684D01*
X0255245Y0030571D01*
X0255335Y0030456D01*
X0255422Y0030338D01*
X0255506Y0030218D01*
X0255587Y0030095D01*
X0255664Y0029971D01*
X0255738Y0029844D01*
X0255808Y0029715D01*
X0255875Y0029585D01*
X0255939Y0029453D01*
X0255998Y0029319D01*
X0256055Y0029184D01*
X0256107Y0029047D01*
X0256156Y0028908D01*
X0256201Y0028769D01*
X0256242Y0028628D01*
X0256279Y0028486D01*
X0256312Y0028344D01*
X0256342Y0028200D01*
X0256368Y0028056D01*
X0256389Y0027911D01*
X0256407Y0027765D01*
X0256421Y0027619D01*
X0256431Y0027473D01*
X0256437Y0027327D01*
X0256439Y0027180D01*
X0256437Y0027033D01*
X0256431Y0026887D01*
X0256421Y0026741D01*
X0256407Y0026595D01*
X0256389Y0026449D01*
X0256368Y0026304D01*
X0256342Y0026160D01*
X0256312Y0026016D01*
X0256279Y0025874D01*
X0256242Y0025732D01*
X0256201Y0025591D01*
X0256156Y0025452D01*
X0256107Y0025313D01*
X0256055Y0025176D01*
X0255998Y0025041D01*
X0255939Y0024907D01*
X0255875Y0024775D01*
X0255808Y0024645D01*
X0255738Y0024516D01*
X0255664Y0024389D01*
X0255587Y0024265D01*
X0255506Y0024142D01*
X0255422Y0024022D01*
X0255335Y0023904D01*
X0255245Y0023789D01*
X0255152Y0023676D01*
X0255055Y0023565D01*
X0254956Y0023457D01*
X0254854Y0023352D01*
X0254749Y0023250D01*
X0254641Y0023151D01*
X0254530Y0023054D01*
X0254417Y0022961D01*
X0254302Y0022871D01*
X0254184Y0022784D01*
X0254064Y0022700D01*
X0253941Y0022619D01*
X0253817Y0022542D01*
X0253690Y0022468D01*
X0253561Y0022398D01*
X0253431Y0022331D01*
X0253299Y0022267D01*
X0253165Y0022208D01*
X0253030Y0022151D01*
X0252893Y0022099D01*
X0252754Y0022050D01*
X0252615Y0022005D01*
X0252474Y0021964D01*
X0252332Y0021927D01*
X0252190Y0021894D01*
X0252046Y0021864D01*
X0251902Y0021838D01*
X0251757Y0021817D01*
X0251611Y0021799D01*
X0251465Y0021785D01*
X0251319Y0021775D01*
X0251173Y0021769D01*
X0251026Y0021767D01*
X0250879Y0021769D01*
X0250733Y0021775D01*
X0250587Y0021785D01*
X0250441Y0021799D01*
X0250295Y0021817D01*
X0250150Y0021838D01*
X0250006Y0021864D01*
X0249862Y0021894D01*
X0249720Y0021927D01*
X0249578Y0021964D01*
X0249437Y0022005D01*
X0249298Y0022050D01*
X0249159Y0022099D01*
X0249022Y0022151D01*
X0248887Y0022208D01*
X0248753Y0022267D01*
X0248621Y0022331D01*
X0248491Y0022398D01*
X0248362Y0022468D01*
X0248235Y0022542D01*
X0248111Y0022619D01*
X0247988Y0022700D01*
X0247868Y0022784D01*
X0247750Y0022871D01*
X0247635Y0022961D01*
X0247522Y0023054D01*
X0247411Y0023151D01*
X0247303Y0023250D01*
X0247198Y0023352D01*
X0247096Y0023457D01*
X0246997Y0023565D01*
X0246900Y0023676D01*
X0246807Y0023789D01*
X0246717Y0023904D01*
X0246630Y0024022D01*
X0246546Y0024142D01*
X0246465Y0024265D01*
X0246388Y0024389D01*
X0246314Y0024516D01*
X0246244Y0024645D01*
X0246177Y0024775D01*
X0246113Y0024907D01*
X0246054Y0025041D01*
X0245997Y0025176D01*
X0245945Y0025313D01*
X0245896Y0025452D01*
X0245851Y0025591D01*
X0245810Y0025732D01*
X0245773Y0025874D01*
X0245740Y0026016D01*
X0245710Y0026160D01*
X0245684Y0026304D01*
X0245663Y0026449D01*
X0245645Y0026595D01*
X0245631Y0026741D01*
X0245621Y0026887D01*
X0245615Y0027033D01*
X0245613Y0027180D01*
X0190002Y0029148D02*
X0190002Y0088203D01*
X0186065Y0092140D02*
X0185941Y0092138D01*
X0185818Y0092132D01*
X0185694Y0092123D01*
X0185572Y0092109D01*
X0185449Y0092092D01*
X0185327Y0092070D01*
X0185206Y0092045D01*
X0185086Y0092016D01*
X0184967Y0091984D01*
X0184848Y0091947D01*
X0184731Y0091907D01*
X0184616Y0091864D01*
X0184501Y0091816D01*
X0184389Y0091765D01*
X0184278Y0091711D01*
X0184168Y0091653D01*
X0184061Y0091592D01*
X0183955Y0091527D01*
X0183852Y0091459D01*
X0183751Y0091388D01*
X0183652Y0091314D01*
X0183555Y0091237D01*
X0183461Y0091156D01*
X0183370Y0091073D01*
X0183281Y0090987D01*
X0183195Y0090898D01*
X0183112Y0090807D01*
X0183031Y0090713D01*
X0182954Y0090616D01*
X0182880Y0090517D01*
X0182809Y0090416D01*
X0182741Y0090313D01*
X0182676Y0090207D01*
X0182615Y0090100D01*
X0182557Y0089990D01*
X0182503Y0089879D01*
X0182452Y0089767D01*
X0182404Y0089652D01*
X0182361Y0089537D01*
X0182321Y0089420D01*
X0182284Y0089301D01*
X0182252Y0089182D01*
X0182223Y0089062D01*
X0182198Y0088941D01*
X0182176Y0088819D01*
X0182159Y0088696D01*
X0182145Y0088574D01*
X0182136Y0088450D01*
X0182130Y0088327D01*
X0182128Y0088203D01*
X0182128Y0029148D01*
X0186065Y0025211D02*
X0186189Y0025213D01*
X0186312Y0025219D01*
X0186436Y0025228D01*
X0186558Y0025242D01*
X0186681Y0025259D01*
X0186803Y0025281D01*
X0186924Y0025306D01*
X0187044Y0025335D01*
X0187163Y0025367D01*
X0187282Y0025404D01*
X0187399Y0025444D01*
X0187514Y0025487D01*
X0187629Y0025535D01*
X0187741Y0025586D01*
X0187852Y0025640D01*
X0187962Y0025698D01*
X0188069Y0025759D01*
X0188175Y0025824D01*
X0188278Y0025892D01*
X0188379Y0025963D01*
X0188478Y0026037D01*
X0188575Y0026114D01*
X0188669Y0026195D01*
X0188760Y0026278D01*
X0188849Y0026364D01*
X0188935Y0026453D01*
X0189018Y0026544D01*
X0189099Y0026638D01*
X0189176Y0026735D01*
X0189250Y0026834D01*
X0189321Y0026935D01*
X0189389Y0027038D01*
X0189454Y0027144D01*
X0189515Y0027251D01*
X0189573Y0027361D01*
X0189627Y0027472D01*
X0189678Y0027584D01*
X0189726Y0027699D01*
X0189769Y0027814D01*
X0189809Y0027931D01*
X0189846Y0028050D01*
X0189878Y0028169D01*
X0189907Y0028289D01*
X0189932Y0028410D01*
X0189954Y0028532D01*
X0189971Y0028655D01*
X0189985Y0028777D01*
X0189994Y0028901D01*
X0190000Y0029024D01*
X0190002Y0029148D01*
X0186065Y0025211D02*
X0185941Y0025213D01*
X0185818Y0025219D01*
X0185694Y0025228D01*
X0185572Y0025242D01*
X0185449Y0025259D01*
X0185327Y0025281D01*
X0185206Y0025306D01*
X0185086Y0025335D01*
X0184967Y0025367D01*
X0184848Y0025404D01*
X0184731Y0025444D01*
X0184616Y0025487D01*
X0184501Y0025535D01*
X0184389Y0025586D01*
X0184278Y0025640D01*
X0184168Y0025698D01*
X0184061Y0025759D01*
X0183955Y0025824D01*
X0183852Y0025892D01*
X0183751Y0025963D01*
X0183652Y0026037D01*
X0183555Y0026114D01*
X0183461Y0026195D01*
X0183370Y0026278D01*
X0183281Y0026364D01*
X0183195Y0026453D01*
X0183112Y0026544D01*
X0183031Y0026638D01*
X0182954Y0026735D01*
X0182880Y0026834D01*
X0182809Y0026935D01*
X0182741Y0027038D01*
X0182676Y0027144D01*
X0182615Y0027251D01*
X0182557Y0027361D01*
X0182503Y0027472D01*
X0182452Y0027584D01*
X0182404Y0027699D01*
X0182361Y0027814D01*
X0182321Y0027931D01*
X0182284Y0028050D01*
X0182252Y0028169D01*
X0182223Y0028289D01*
X0182198Y0028410D01*
X0182176Y0028532D01*
X0182159Y0028655D01*
X0182145Y0028777D01*
X0182136Y0028901D01*
X0182130Y0029024D01*
X0182128Y0029148D01*
X0190002Y0088203D02*
X0190000Y0088327D01*
X0189994Y0088450D01*
X0189985Y0088574D01*
X0189971Y0088696D01*
X0189954Y0088819D01*
X0189932Y0088941D01*
X0189907Y0089062D01*
X0189878Y0089182D01*
X0189846Y0089301D01*
X0189809Y0089420D01*
X0189769Y0089537D01*
X0189726Y0089652D01*
X0189678Y0089767D01*
X0189627Y0089879D01*
X0189573Y0089990D01*
X0189515Y0090100D01*
X0189454Y0090207D01*
X0189389Y0090313D01*
X0189321Y0090416D01*
X0189250Y0090517D01*
X0189176Y0090616D01*
X0189099Y0090713D01*
X0189018Y0090807D01*
X0188935Y0090898D01*
X0188849Y0090987D01*
X0188760Y0091073D01*
X0188669Y0091156D01*
X0188575Y0091237D01*
X0188478Y0091314D01*
X0188379Y0091388D01*
X0188278Y0091459D01*
X0188175Y0091527D01*
X0188069Y0091592D01*
X0187962Y0091653D01*
X0187852Y0091711D01*
X0187741Y0091765D01*
X0187629Y0091816D01*
X0187514Y0091864D01*
X0187399Y0091907D01*
X0187282Y0091947D01*
X0187163Y0091984D01*
X0187044Y0092016D01*
X0186924Y0092045D01*
X0186803Y0092070D01*
X0186681Y0092092D01*
X0186558Y0092109D01*
X0186436Y0092123D01*
X0186312Y0092132D01*
X0186189Y0092138D01*
X0186065Y0092140D01*
X0245613Y0220093D02*
X0245615Y0220240D01*
X0245621Y0220386D01*
X0245631Y0220532D01*
X0245645Y0220678D01*
X0245663Y0220824D01*
X0245684Y0220969D01*
X0245710Y0221113D01*
X0245740Y0221257D01*
X0245773Y0221399D01*
X0245810Y0221541D01*
X0245851Y0221682D01*
X0245896Y0221821D01*
X0245945Y0221960D01*
X0245997Y0222097D01*
X0246054Y0222232D01*
X0246113Y0222366D01*
X0246177Y0222498D01*
X0246244Y0222628D01*
X0246314Y0222757D01*
X0246388Y0222884D01*
X0246465Y0223008D01*
X0246546Y0223131D01*
X0246630Y0223251D01*
X0246717Y0223369D01*
X0246807Y0223484D01*
X0246900Y0223597D01*
X0246997Y0223708D01*
X0247096Y0223816D01*
X0247198Y0223921D01*
X0247303Y0224023D01*
X0247411Y0224122D01*
X0247522Y0224219D01*
X0247635Y0224312D01*
X0247750Y0224402D01*
X0247868Y0224489D01*
X0247988Y0224573D01*
X0248111Y0224654D01*
X0248235Y0224731D01*
X0248362Y0224805D01*
X0248491Y0224875D01*
X0248621Y0224942D01*
X0248753Y0225006D01*
X0248887Y0225065D01*
X0249022Y0225122D01*
X0249159Y0225174D01*
X0249298Y0225223D01*
X0249437Y0225268D01*
X0249578Y0225309D01*
X0249720Y0225346D01*
X0249862Y0225379D01*
X0250006Y0225409D01*
X0250150Y0225435D01*
X0250295Y0225456D01*
X0250441Y0225474D01*
X0250587Y0225488D01*
X0250733Y0225498D01*
X0250879Y0225504D01*
X0251026Y0225506D01*
X0251173Y0225504D01*
X0251319Y0225498D01*
X0251465Y0225488D01*
X0251611Y0225474D01*
X0251757Y0225456D01*
X0251902Y0225435D01*
X0252046Y0225409D01*
X0252190Y0225379D01*
X0252332Y0225346D01*
X0252474Y0225309D01*
X0252615Y0225268D01*
X0252754Y0225223D01*
X0252893Y0225174D01*
X0253030Y0225122D01*
X0253165Y0225065D01*
X0253299Y0225006D01*
X0253431Y0224942D01*
X0253561Y0224875D01*
X0253690Y0224805D01*
X0253817Y0224731D01*
X0253941Y0224654D01*
X0254064Y0224573D01*
X0254184Y0224489D01*
X0254302Y0224402D01*
X0254417Y0224312D01*
X0254530Y0224219D01*
X0254641Y0224122D01*
X0254749Y0224023D01*
X0254854Y0223921D01*
X0254956Y0223816D01*
X0255055Y0223708D01*
X0255152Y0223597D01*
X0255245Y0223484D01*
X0255335Y0223369D01*
X0255422Y0223251D01*
X0255506Y0223131D01*
X0255587Y0223008D01*
X0255664Y0222884D01*
X0255738Y0222757D01*
X0255808Y0222628D01*
X0255875Y0222498D01*
X0255939Y0222366D01*
X0255998Y0222232D01*
X0256055Y0222097D01*
X0256107Y0221960D01*
X0256156Y0221821D01*
X0256201Y0221682D01*
X0256242Y0221541D01*
X0256279Y0221399D01*
X0256312Y0221257D01*
X0256342Y0221113D01*
X0256368Y0220969D01*
X0256389Y0220824D01*
X0256407Y0220678D01*
X0256421Y0220532D01*
X0256431Y0220386D01*
X0256437Y0220240D01*
X0256439Y0220093D01*
X0256437Y0219946D01*
X0256431Y0219800D01*
X0256421Y0219654D01*
X0256407Y0219508D01*
X0256389Y0219362D01*
X0256368Y0219217D01*
X0256342Y0219073D01*
X0256312Y0218929D01*
X0256279Y0218787D01*
X0256242Y0218645D01*
X0256201Y0218504D01*
X0256156Y0218365D01*
X0256107Y0218226D01*
X0256055Y0218089D01*
X0255998Y0217954D01*
X0255939Y0217820D01*
X0255875Y0217688D01*
X0255808Y0217558D01*
X0255738Y0217429D01*
X0255664Y0217302D01*
X0255587Y0217178D01*
X0255506Y0217055D01*
X0255422Y0216935D01*
X0255335Y0216817D01*
X0255245Y0216702D01*
X0255152Y0216589D01*
X0255055Y0216478D01*
X0254956Y0216370D01*
X0254854Y0216265D01*
X0254749Y0216163D01*
X0254641Y0216064D01*
X0254530Y0215967D01*
X0254417Y0215874D01*
X0254302Y0215784D01*
X0254184Y0215697D01*
X0254064Y0215613D01*
X0253941Y0215532D01*
X0253817Y0215455D01*
X0253690Y0215381D01*
X0253561Y0215311D01*
X0253431Y0215244D01*
X0253299Y0215180D01*
X0253165Y0215121D01*
X0253030Y0215064D01*
X0252893Y0215012D01*
X0252754Y0214963D01*
X0252615Y0214918D01*
X0252474Y0214877D01*
X0252332Y0214840D01*
X0252190Y0214807D01*
X0252046Y0214777D01*
X0251902Y0214751D01*
X0251757Y0214730D01*
X0251611Y0214712D01*
X0251465Y0214698D01*
X0251319Y0214688D01*
X0251173Y0214682D01*
X0251026Y0214680D01*
X0250879Y0214682D01*
X0250733Y0214688D01*
X0250587Y0214698D01*
X0250441Y0214712D01*
X0250295Y0214730D01*
X0250150Y0214751D01*
X0250006Y0214777D01*
X0249862Y0214807D01*
X0249720Y0214840D01*
X0249578Y0214877D01*
X0249437Y0214918D01*
X0249298Y0214963D01*
X0249159Y0215012D01*
X0249022Y0215064D01*
X0248887Y0215121D01*
X0248753Y0215180D01*
X0248621Y0215244D01*
X0248491Y0215311D01*
X0248362Y0215381D01*
X0248235Y0215455D01*
X0248111Y0215532D01*
X0247988Y0215613D01*
X0247868Y0215697D01*
X0247750Y0215784D01*
X0247635Y0215874D01*
X0247522Y0215967D01*
X0247411Y0216064D01*
X0247303Y0216163D01*
X0247198Y0216265D01*
X0247096Y0216370D01*
X0246997Y0216478D01*
X0246900Y0216589D01*
X0246807Y0216702D01*
X0246717Y0216817D01*
X0246630Y0216935D01*
X0246546Y0217055D01*
X0246465Y0217178D01*
X0246388Y0217302D01*
X0246314Y0217429D01*
X0246244Y0217558D01*
X0246177Y0217688D01*
X0246113Y0217820D01*
X0246054Y0217954D01*
X0245997Y0218089D01*
X0245945Y0218226D01*
X0245896Y0218365D01*
X0245851Y0218504D01*
X0245810Y0218645D01*
X0245773Y0218787D01*
X0245740Y0218929D01*
X0245710Y0219073D01*
X0245684Y0219217D01*
X0245663Y0219362D01*
X0245645Y0219508D01*
X0245631Y0219654D01*
X0245621Y0219800D01*
X0245615Y0219946D01*
X0245613Y0220093D01*
X0017267Y0220093D02*
X0017269Y0220240D01*
X0017275Y0220386D01*
X0017285Y0220532D01*
X0017299Y0220678D01*
X0017317Y0220824D01*
X0017338Y0220969D01*
X0017364Y0221113D01*
X0017394Y0221257D01*
X0017427Y0221399D01*
X0017464Y0221541D01*
X0017505Y0221682D01*
X0017550Y0221821D01*
X0017599Y0221960D01*
X0017651Y0222097D01*
X0017708Y0222232D01*
X0017767Y0222366D01*
X0017831Y0222498D01*
X0017898Y0222628D01*
X0017968Y0222757D01*
X0018042Y0222884D01*
X0018119Y0223008D01*
X0018200Y0223131D01*
X0018284Y0223251D01*
X0018371Y0223369D01*
X0018461Y0223484D01*
X0018554Y0223597D01*
X0018651Y0223708D01*
X0018750Y0223816D01*
X0018852Y0223921D01*
X0018957Y0224023D01*
X0019065Y0224122D01*
X0019176Y0224219D01*
X0019289Y0224312D01*
X0019404Y0224402D01*
X0019522Y0224489D01*
X0019642Y0224573D01*
X0019765Y0224654D01*
X0019889Y0224731D01*
X0020016Y0224805D01*
X0020145Y0224875D01*
X0020275Y0224942D01*
X0020407Y0225006D01*
X0020541Y0225065D01*
X0020676Y0225122D01*
X0020813Y0225174D01*
X0020952Y0225223D01*
X0021091Y0225268D01*
X0021232Y0225309D01*
X0021374Y0225346D01*
X0021516Y0225379D01*
X0021660Y0225409D01*
X0021804Y0225435D01*
X0021949Y0225456D01*
X0022095Y0225474D01*
X0022241Y0225488D01*
X0022387Y0225498D01*
X0022533Y0225504D01*
X0022680Y0225506D01*
X0022827Y0225504D01*
X0022973Y0225498D01*
X0023119Y0225488D01*
X0023265Y0225474D01*
X0023411Y0225456D01*
X0023556Y0225435D01*
X0023700Y0225409D01*
X0023844Y0225379D01*
X0023986Y0225346D01*
X0024128Y0225309D01*
X0024269Y0225268D01*
X0024408Y0225223D01*
X0024547Y0225174D01*
X0024684Y0225122D01*
X0024819Y0225065D01*
X0024953Y0225006D01*
X0025085Y0224942D01*
X0025215Y0224875D01*
X0025344Y0224805D01*
X0025471Y0224731D01*
X0025595Y0224654D01*
X0025718Y0224573D01*
X0025838Y0224489D01*
X0025956Y0224402D01*
X0026071Y0224312D01*
X0026184Y0224219D01*
X0026295Y0224122D01*
X0026403Y0224023D01*
X0026508Y0223921D01*
X0026610Y0223816D01*
X0026709Y0223708D01*
X0026806Y0223597D01*
X0026899Y0223484D01*
X0026989Y0223369D01*
X0027076Y0223251D01*
X0027160Y0223131D01*
X0027241Y0223008D01*
X0027318Y0222884D01*
X0027392Y0222757D01*
X0027462Y0222628D01*
X0027529Y0222498D01*
X0027593Y0222366D01*
X0027652Y0222232D01*
X0027709Y0222097D01*
X0027761Y0221960D01*
X0027810Y0221821D01*
X0027855Y0221682D01*
X0027896Y0221541D01*
X0027933Y0221399D01*
X0027966Y0221257D01*
X0027996Y0221113D01*
X0028022Y0220969D01*
X0028043Y0220824D01*
X0028061Y0220678D01*
X0028075Y0220532D01*
X0028085Y0220386D01*
X0028091Y0220240D01*
X0028093Y0220093D01*
X0028091Y0219946D01*
X0028085Y0219800D01*
X0028075Y0219654D01*
X0028061Y0219508D01*
X0028043Y0219362D01*
X0028022Y0219217D01*
X0027996Y0219073D01*
X0027966Y0218929D01*
X0027933Y0218787D01*
X0027896Y0218645D01*
X0027855Y0218504D01*
X0027810Y0218365D01*
X0027761Y0218226D01*
X0027709Y0218089D01*
X0027652Y0217954D01*
X0027593Y0217820D01*
X0027529Y0217688D01*
X0027462Y0217558D01*
X0027392Y0217429D01*
X0027318Y0217302D01*
X0027241Y0217178D01*
X0027160Y0217055D01*
X0027076Y0216935D01*
X0026989Y0216817D01*
X0026899Y0216702D01*
X0026806Y0216589D01*
X0026709Y0216478D01*
X0026610Y0216370D01*
X0026508Y0216265D01*
X0026403Y0216163D01*
X0026295Y0216064D01*
X0026184Y0215967D01*
X0026071Y0215874D01*
X0025956Y0215784D01*
X0025838Y0215697D01*
X0025718Y0215613D01*
X0025595Y0215532D01*
X0025471Y0215455D01*
X0025344Y0215381D01*
X0025215Y0215311D01*
X0025085Y0215244D01*
X0024953Y0215180D01*
X0024819Y0215121D01*
X0024684Y0215064D01*
X0024547Y0215012D01*
X0024408Y0214963D01*
X0024269Y0214918D01*
X0024128Y0214877D01*
X0023986Y0214840D01*
X0023844Y0214807D01*
X0023700Y0214777D01*
X0023556Y0214751D01*
X0023411Y0214730D01*
X0023265Y0214712D01*
X0023119Y0214698D01*
X0022973Y0214688D01*
X0022827Y0214682D01*
X0022680Y0214680D01*
X0022533Y0214682D01*
X0022387Y0214688D01*
X0022241Y0214698D01*
X0022095Y0214712D01*
X0021949Y0214730D01*
X0021804Y0214751D01*
X0021660Y0214777D01*
X0021516Y0214807D01*
X0021374Y0214840D01*
X0021232Y0214877D01*
X0021091Y0214918D01*
X0020952Y0214963D01*
X0020813Y0215012D01*
X0020676Y0215064D01*
X0020541Y0215121D01*
X0020407Y0215180D01*
X0020275Y0215244D01*
X0020145Y0215311D01*
X0020016Y0215381D01*
X0019889Y0215455D01*
X0019765Y0215532D01*
X0019642Y0215613D01*
X0019522Y0215697D01*
X0019404Y0215784D01*
X0019289Y0215874D01*
X0019176Y0215967D01*
X0019065Y0216064D01*
X0018957Y0216163D01*
X0018852Y0216265D01*
X0018750Y0216370D01*
X0018651Y0216478D01*
X0018554Y0216589D01*
X0018461Y0216702D01*
X0018371Y0216817D01*
X0018284Y0216935D01*
X0018200Y0217055D01*
X0018119Y0217178D01*
X0018042Y0217302D01*
X0017968Y0217429D01*
X0017898Y0217558D01*
X0017831Y0217688D01*
X0017767Y0217820D01*
X0017708Y0217954D01*
X0017651Y0218089D01*
X0017599Y0218226D01*
X0017550Y0218365D01*
X0017505Y0218504D01*
X0017464Y0218645D01*
X0017427Y0218787D01*
X0017394Y0218929D01*
X0017364Y0219073D01*
X0017338Y0219217D01*
X0017317Y0219362D01*
X0017299Y0219508D01*
X0017285Y0219654D01*
X0017275Y0219800D01*
X0017269Y0219946D01*
X0017267Y0220093D01*
X0017267Y0027180D02*
X0017269Y0027327D01*
X0017275Y0027473D01*
X0017285Y0027619D01*
X0017299Y0027765D01*
X0017317Y0027911D01*
X0017338Y0028056D01*
X0017364Y0028200D01*
X0017394Y0028344D01*
X0017427Y0028486D01*
X0017464Y0028628D01*
X0017505Y0028769D01*
X0017550Y0028908D01*
X0017599Y0029047D01*
X0017651Y0029184D01*
X0017708Y0029319D01*
X0017767Y0029453D01*
X0017831Y0029585D01*
X0017898Y0029715D01*
X0017968Y0029844D01*
X0018042Y0029971D01*
X0018119Y0030095D01*
X0018200Y0030218D01*
X0018284Y0030338D01*
X0018371Y0030456D01*
X0018461Y0030571D01*
X0018554Y0030684D01*
X0018651Y0030795D01*
X0018750Y0030903D01*
X0018852Y0031008D01*
X0018957Y0031110D01*
X0019065Y0031209D01*
X0019176Y0031306D01*
X0019289Y0031399D01*
X0019404Y0031489D01*
X0019522Y0031576D01*
X0019642Y0031660D01*
X0019765Y0031741D01*
X0019889Y0031818D01*
X0020016Y0031892D01*
X0020145Y0031962D01*
X0020275Y0032029D01*
X0020407Y0032093D01*
X0020541Y0032152D01*
X0020676Y0032209D01*
X0020813Y0032261D01*
X0020952Y0032310D01*
X0021091Y0032355D01*
X0021232Y0032396D01*
X0021374Y0032433D01*
X0021516Y0032466D01*
X0021660Y0032496D01*
X0021804Y0032522D01*
X0021949Y0032543D01*
X0022095Y0032561D01*
X0022241Y0032575D01*
X0022387Y0032585D01*
X0022533Y0032591D01*
X0022680Y0032593D01*
X0022827Y0032591D01*
X0022973Y0032585D01*
X0023119Y0032575D01*
X0023265Y0032561D01*
X0023411Y0032543D01*
X0023556Y0032522D01*
X0023700Y0032496D01*
X0023844Y0032466D01*
X0023986Y0032433D01*
X0024128Y0032396D01*
X0024269Y0032355D01*
X0024408Y0032310D01*
X0024547Y0032261D01*
X0024684Y0032209D01*
X0024819Y0032152D01*
X0024953Y0032093D01*
X0025085Y0032029D01*
X0025215Y0031962D01*
X0025344Y0031892D01*
X0025471Y0031818D01*
X0025595Y0031741D01*
X0025718Y0031660D01*
X0025838Y0031576D01*
X0025956Y0031489D01*
X0026071Y0031399D01*
X0026184Y0031306D01*
X0026295Y0031209D01*
X0026403Y0031110D01*
X0026508Y0031008D01*
X0026610Y0030903D01*
X0026709Y0030795D01*
X0026806Y0030684D01*
X0026899Y0030571D01*
X0026989Y0030456D01*
X0027076Y0030338D01*
X0027160Y0030218D01*
X0027241Y0030095D01*
X0027318Y0029971D01*
X0027392Y0029844D01*
X0027462Y0029715D01*
X0027529Y0029585D01*
X0027593Y0029453D01*
X0027652Y0029319D01*
X0027709Y0029184D01*
X0027761Y0029047D01*
X0027810Y0028908D01*
X0027855Y0028769D01*
X0027896Y0028628D01*
X0027933Y0028486D01*
X0027966Y0028344D01*
X0027996Y0028200D01*
X0028022Y0028056D01*
X0028043Y0027911D01*
X0028061Y0027765D01*
X0028075Y0027619D01*
X0028085Y0027473D01*
X0028091Y0027327D01*
X0028093Y0027180D01*
X0028091Y0027033D01*
X0028085Y0026887D01*
X0028075Y0026741D01*
X0028061Y0026595D01*
X0028043Y0026449D01*
X0028022Y0026304D01*
X0027996Y0026160D01*
X0027966Y0026016D01*
X0027933Y0025874D01*
X0027896Y0025732D01*
X0027855Y0025591D01*
X0027810Y0025452D01*
X0027761Y0025313D01*
X0027709Y0025176D01*
X0027652Y0025041D01*
X0027593Y0024907D01*
X0027529Y0024775D01*
X0027462Y0024645D01*
X0027392Y0024516D01*
X0027318Y0024389D01*
X0027241Y0024265D01*
X0027160Y0024142D01*
X0027076Y0024022D01*
X0026989Y0023904D01*
X0026899Y0023789D01*
X0026806Y0023676D01*
X0026709Y0023565D01*
X0026610Y0023457D01*
X0026508Y0023352D01*
X0026403Y0023250D01*
X0026295Y0023151D01*
X0026184Y0023054D01*
X0026071Y0022961D01*
X0025956Y0022871D01*
X0025838Y0022784D01*
X0025718Y0022700D01*
X0025595Y0022619D01*
X0025471Y0022542D01*
X0025344Y0022468D01*
X0025215Y0022398D01*
X0025085Y0022331D01*
X0024953Y0022267D01*
X0024819Y0022208D01*
X0024684Y0022151D01*
X0024547Y0022099D01*
X0024408Y0022050D01*
X0024269Y0022005D01*
X0024128Y0021964D01*
X0023986Y0021927D01*
X0023844Y0021894D01*
X0023700Y0021864D01*
X0023556Y0021838D01*
X0023411Y0021817D01*
X0023265Y0021799D01*
X0023119Y0021785D01*
X0022973Y0021775D01*
X0022827Y0021769D01*
X0022680Y0021767D01*
X0022533Y0021769D01*
X0022387Y0021775D01*
X0022241Y0021785D01*
X0022095Y0021799D01*
X0021949Y0021817D01*
X0021804Y0021838D01*
X0021660Y0021864D01*
X0021516Y0021894D01*
X0021374Y0021927D01*
X0021232Y0021964D01*
X0021091Y0022005D01*
X0020952Y0022050D01*
X0020813Y0022099D01*
X0020676Y0022151D01*
X0020541Y0022208D01*
X0020407Y0022267D01*
X0020275Y0022331D01*
X0020145Y0022398D01*
X0020016Y0022468D01*
X0019889Y0022542D01*
X0019765Y0022619D01*
X0019642Y0022700D01*
X0019522Y0022784D01*
X0019404Y0022871D01*
X0019289Y0022961D01*
X0019176Y0023054D01*
X0019065Y0023151D01*
X0018957Y0023250D01*
X0018852Y0023352D01*
X0018750Y0023457D01*
X0018651Y0023565D01*
X0018554Y0023676D01*
X0018461Y0023789D01*
X0018371Y0023904D01*
X0018284Y0024022D01*
X0018200Y0024142D01*
X0018119Y0024265D01*
X0018042Y0024389D01*
X0017968Y0024516D01*
X0017898Y0024645D01*
X0017831Y0024775D01*
X0017767Y0024907D01*
X0017708Y0025041D01*
X0017651Y0025176D01*
X0017599Y0025313D01*
X0017550Y0025452D01*
X0017505Y0025591D01*
X0017464Y0025732D01*
X0017427Y0025874D01*
X0017394Y0026016D01*
X0017364Y0026160D01*
X0017338Y0026304D01*
X0017317Y0026449D01*
X0017299Y0026595D01*
X0017285Y0026741D01*
X0017275Y0026887D01*
X0017269Y0027033D01*
X0017267Y0027180D01*
D18*
X0041853Y0215093D03*
D19*
X0051853Y0215093D03*
X0061853Y0215093D03*
X0071853Y0215093D03*
X0081853Y0215093D03*
X0091853Y0215093D03*
X0101853Y0215093D03*
X0111853Y0215093D03*
X0121853Y0215093D03*
X0131853Y0215093D03*
X0141853Y0215093D03*
X0151853Y0215093D03*
X0161853Y0215093D03*
X0171853Y0215093D03*
X0181853Y0215093D03*
X0191853Y0215093D03*
X0201853Y0215093D03*
X0211853Y0215093D03*
X0221853Y0215093D03*
X0231853Y0215093D03*
X0231853Y0225093D03*
X0221853Y0225093D03*
X0211853Y0225093D03*
X0201853Y0225093D03*
X0191853Y0225093D03*
X0181853Y0225093D03*
X0171853Y0225093D03*
X0161853Y0225093D03*
X0151853Y0225093D03*
X0141853Y0225093D03*
X0131853Y0225093D03*
X0121853Y0225093D03*
X0111853Y0225093D03*
X0101853Y0225093D03*
X0091853Y0225093D03*
X0081853Y0225093D03*
X0071853Y0225093D03*
X0061853Y0225093D03*
X0051853Y0225093D03*
X0041853Y0225093D03*
D20*
X0021400Y0198400D03*
D21*
X0021400Y0184620D03*
D22*
X0045400Y0193400D03*
X0048900Y0193400D03*
X0052400Y0193400D03*
D23*
X0212246Y0080900D02*
X0253900Y0080900D01*
X0258900Y0085900D01*
X0258900Y0197775D01*
X0255150Y0201525D01*
X0254975Y0201525D01*
X0254600Y0201900D01*
X0244775Y0201900D01*
X0237650Y0209025D01*
X0230775Y0209025D01*
X0227025Y0212775D01*
X0227025Y0220275D01*
X0222207Y0225093D01*
X0221853Y0225093D01*
X0231853Y0225093D02*
X0232207Y0225093D01*
X0236400Y0220900D01*
X0236300Y0220800D01*
X0236300Y0218300D01*
X0237200Y0217400D01*
X0237200Y0212600D01*
X0245300Y0204500D01*
X0255250Y0204500D01*
X0256350Y0203400D01*
X0256400Y0203400D01*
X0261400Y0198400D01*
X0261400Y0073400D01*
X0238900Y0050900D01*
X0212246Y0050900D01*
X0216400Y0098400D02*
X0231400Y0113400D01*
X0247025Y0113400D01*
X0256400Y0122775D01*
X0256400Y0197150D01*
X0253900Y0199650D01*
X0243900Y0199650D01*
X0237025Y0206525D01*
X0230150Y0206525D01*
X0221853Y0214822D01*
X0221853Y0215093D01*
X0228900Y0193400D02*
X0228900Y0173400D01*
X0228900Y0153400D01*
X0228900Y0133400D01*
X0238900Y0133400D02*
X0238900Y0153400D01*
X0238900Y0173400D01*
X0238900Y0193400D01*
D24*
X0228900Y0193400D02*
X0228900Y0195100D01*
X0214400Y0209600D01*
X0208400Y0209600D01*
X0206900Y0211100D01*
X0206900Y0227300D01*
X0204200Y0230000D01*
X0069200Y0230000D01*
X0066800Y0227600D01*
X0066800Y0220040D01*
X0061853Y0215093D01*
X0086900Y0211700D02*
X0086900Y0220140D01*
X0114200Y0138500D02*
X0111500Y0135800D01*
X0111500Y0130600D01*
X0111400Y0130500D01*
X0114200Y0138500D02*
X0119600Y0138500D01*
X0122700Y0135400D01*
X0122700Y0132146D01*
X0126254Y0132146D01*
X0129800Y0128600D01*
X0129800Y0119900D01*
X0130100Y0119600D01*
X0122700Y0125454D02*
X0120654Y0125454D01*
X0118400Y0123200D01*
X0097700Y0123200D01*
X0096500Y0124400D01*
X0096500Y0130400D01*
X0096400Y0130500D01*
D25*
X0086400Y0130500D02*
X0086400Y0135900D01*
X0071400Y0150900D01*
X0057246Y0150900D01*
X0050554Y0150900D02*
X0050554Y0159837D01*
X0048231Y0162160D01*
X0056006Y0162160D01*
X0056400Y0162554D01*
X0056400Y0169246D02*
X0056006Y0169640D01*
X0048231Y0169640D01*
X0042800Y0180900D02*
X0048900Y0187000D01*
X0048900Y0193400D01*
X0045400Y0193400D02*
X0042800Y0193400D01*
X0052400Y0193400D02*
X0054800Y0193400D01*
X0056006Y0134640D02*
X0048231Y0134640D01*
X0048231Y0127160D02*
X0056006Y0127160D01*
X0056400Y0127554D01*
X0056400Y0134246D02*
X0056006Y0134640D01*
X0048231Y0127160D02*
X0048231Y0118223D01*
X0050554Y0115900D01*
X0057246Y0115900D02*
X0063900Y0115900D01*
X0073500Y0106300D01*
X0081400Y0106300D01*
X0086400Y0106300D02*
X0086400Y0098400D01*
X0068900Y0080900D01*
X0057246Y0080900D01*
X0050554Y0080900D02*
X0048900Y0082554D01*
X0048900Y0090900D01*
X0048231Y0091569D01*
X0048231Y0092160D01*
X0056006Y0092160D01*
X0056400Y0092554D01*
X0056400Y0099246D02*
X0056006Y0099640D01*
X0048231Y0099640D01*
X0068900Y0073400D02*
X0068900Y0053400D01*
X0063900Y0048400D01*
X0057246Y0048400D01*
X0050554Y0048400D02*
X0048231Y0050723D01*
X0048231Y0059660D01*
X0056006Y0059660D01*
X0056400Y0060054D01*
X0056400Y0066746D02*
X0056006Y0067140D01*
X0048231Y0067140D01*
X0068900Y0073400D02*
X0091400Y0095900D01*
X0091400Y0106300D01*
X0096400Y0106300D02*
X0096400Y0093400D01*
X0073900Y0070900D01*
X0073900Y0050900D01*
X0046400Y0023400D01*
X0056400Y0023400D02*
X0056400Y0025900D01*
X0078900Y0048400D01*
X0078900Y0068400D01*
X0101400Y0090900D01*
X0101400Y0106300D01*
X0106400Y0106300D02*
X0106400Y0088400D01*
X0083900Y0065900D01*
X0083900Y0045900D01*
X0066400Y0028400D01*
X0066400Y0023400D01*
X0076400Y0023400D02*
X0076400Y0030900D01*
X0088900Y0043400D01*
X0088900Y0063400D01*
X0111400Y0085900D01*
X0111400Y0106300D01*
X0116400Y0106300D02*
X0116400Y0110900D01*
X0112800Y0114500D01*
X0085100Y0114500D01*
X0083900Y0115700D01*
X0083900Y0115900D01*
X0074746Y0125054D01*
X0073900Y0125054D01*
X0067246Y0125054D01*
X0066400Y0125900D01*
X0073900Y0131746D02*
X0080154Y0131746D01*
X0081400Y0130500D01*
X0081400Y0125900D01*
X0083900Y0123400D01*
X0083900Y0123200D01*
X0087500Y0119600D01*
X0130100Y0119600D01*
X0182600Y0119600D01*
X0188900Y0125900D01*
X0192400Y0129900D02*
X0188900Y0133400D01*
X0192400Y0129900D02*
X0203900Y0129900D01*
X0203900Y0133400D02*
X0218900Y0133400D01*
X0203900Y0136900D02*
X0203900Y0138400D01*
X0201400Y0140900D01*
X0193900Y0140900D01*
X0188900Y0145900D02*
X0192900Y0149900D01*
X0203900Y0149900D01*
X0203900Y0153400D02*
X0218900Y0153400D01*
X0203900Y0156900D02*
X0203900Y0158400D01*
X0201400Y0160900D01*
X0193900Y0160900D01*
X0188900Y0165900D02*
X0192900Y0169900D01*
X0203900Y0169900D01*
X0203900Y0173400D02*
X0218900Y0173400D01*
X0203900Y0176900D02*
X0203900Y0178400D01*
X0201400Y0180900D01*
X0193900Y0180900D01*
X0195400Y0189900D02*
X0203900Y0189900D01*
X0203900Y0193400D02*
X0218900Y0193400D01*
X0203900Y0196900D02*
X0194900Y0196900D01*
X0193900Y0195900D01*
X0205554Y0110900D02*
X0205554Y0099246D01*
X0206400Y0098400D01*
X0212246Y0102554D02*
X0216400Y0098400D01*
X0212246Y0102554D02*
X0212246Y0110900D01*
X0212246Y0080900D02*
X0212246Y0072554D01*
X0216400Y0068400D01*
X0206400Y0068400D02*
X0205554Y0069246D01*
X0205554Y0080900D01*
X0205554Y0050900D02*
X0205554Y0039246D01*
X0206400Y0038400D01*
X0212246Y0042554D02*
X0216400Y0038400D01*
X0212246Y0042554D02*
X0212246Y0050900D01*
D26*
X0188900Y0125900D02*
X0188900Y0133400D01*
X0188900Y0145900D01*
X0188900Y0165900D01*
X0188900Y0183400D01*
X0195400Y0189900D01*
X0193900Y0195900D02*
X0177100Y0179100D01*
X0161400Y0163400D01*
X0153900Y0163400D01*
X0123900Y0163400D01*
X0093900Y0163400D01*
X0064900Y0137600D02*
X0063431Y0139069D01*
X0050600Y0139069D01*
X0048231Y0136700D01*
X0048231Y0134640D01*
X0039569Y0130900D02*
X0031400Y0130900D01*
X0028900Y0128400D01*
X0028900Y0118400D02*
X0034746Y0112554D01*
X0038900Y0112554D01*
X0038900Y0119246D02*
X0038900Y0130231D01*
X0039569Y0130900D01*
X0038900Y0147554D02*
X0034746Y0147554D01*
X0028900Y0153400D01*
X0028900Y0163400D02*
X0031400Y0165900D01*
X0039569Y0165900D01*
X0038900Y0165231D01*
X0038900Y0154246D01*
X0048231Y0169640D02*
X0048231Y0174069D01*
X0046400Y0175900D01*
X0043900Y0175900D01*
X0043900Y0105900D02*
X0046400Y0105900D01*
X0048231Y0104069D01*
X0048231Y0099640D01*
X0039569Y0095900D02*
X0031400Y0095900D01*
X0028900Y0093400D01*
X0028900Y0083400D02*
X0034746Y0077554D01*
X0038900Y0077554D01*
X0043900Y0073400D02*
X0046400Y0073400D01*
X0048231Y0071569D01*
X0048231Y0067140D01*
X0039569Y0063400D02*
X0038900Y0062731D01*
X0038900Y0051746D01*
X0038900Y0045054D02*
X0032246Y0045054D01*
X0028900Y0048400D01*
X0028900Y0058400D02*
X0033900Y0063400D01*
X0039569Y0063400D01*
X0038900Y0084246D02*
X0038900Y0095231D01*
X0039569Y0095900D01*
X0127500Y0205900D02*
X0121700Y0211700D01*
X0121700Y0214940D01*
X0121853Y0215093D01*
X0127500Y0205900D02*
X0183900Y0205900D01*
X0193900Y0195900D01*
D27*
X0193900Y0180900D03*
X0193900Y0160900D03*
X0193900Y0140900D03*
X0066400Y0125900D03*
X0064900Y0137600D03*
X0043900Y0105900D03*
X0043900Y0073400D03*
X0043900Y0175900D03*
D28*
X0042800Y0180900D02*
X0033900Y0180900D01*
X0018900Y0165900D01*
X0018900Y0163400D01*
X0018900Y0153400D01*
X0018900Y0140600D01*
X0018900Y0128400D01*
X0018900Y0118400D01*
X0018900Y0093400D01*
X0018900Y0083400D01*
X0018900Y0058400D01*
X0018900Y0048400D01*
X0021400Y0184620D02*
X0025920Y0184620D01*
X0034700Y0193400D01*
X0042800Y0193400D01*
X0054800Y0193400D02*
X0057200Y0195800D01*
X0057200Y0200300D01*
X0053000Y0204500D01*
X0037400Y0204500D01*
X0034100Y0207800D01*
X0034100Y0221900D01*
X0037293Y0225093D01*
X0041853Y0225093D01*
D29*
X0048500Y0186200D02*
X0043200Y0180900D01*
X0042800Y0180900D01*
X0046100Y0144200D02*
X0042500Y0140600D01*
X0018900Y0140600D01*
X0046100Y0144200D02*
X0067700Y0144200D01*
X0073900Y0138000D01*
X0073900Y0131746D01*
D30*
X0091400Y0130500D02*
X0091400Y0136100D01*
X0070700Y0156800D01*
X0070700Y0195500D01*
X0086900Y0211700D01*
X0092000Y0211700D02*
X0092000Y0214946D01*
X0091853Y0215093D01*
X0092000Y0211700D02*
X0074300Y0194000D01*
X0074300Y0158000D01*
X0096400Y0135900D01*
X0096400Y0130500D01*
X0101400Y0130500D02*
X0101400Y0135700D01*
X0077900Y0159200D01*
X0077900Y0192800D01*
X0095000Y0209900D01*
X0096660Y0209900D01*
X0101853Y0215093D01*
X0101300Y0208700D02*
X0105460Y0208700D01*
X0111853Y0215093D01*
X0101300Y0208700D02*
X0098600Y0206000D01*
X0096200Y0206000D01*
X0081800Y0191600D01*
X0081800Y0160400D01*
X0106400Y0135800D01*
X0106400Y0130500D01*
X0153900Y0173400D02*
X0156900Y0173400D01*
X0164000Y0180500D01*
X0164000Y0187700D01*
X0167946Y0191646D01*
X0171500Y0191646D01*
X0171500Y0184954D02*
X0171500Y0184700D01*
X0177100Y0179100D01*
X0091853Y0225093D02*
X0086900Y0220140D01*
D31*
X0193900Y0195900D03*
M02*
